<?xml version="1.0" encoding="utf-8"?>
<!-- Generator: Adobe Illustrator 26.2.1, SVG Export Plug-In . SVG Version: 6.00 Build 0)  -->
<svg version="1.1" id="visual" xmlns="http://www.w3.org/2000/svg" xmlns:xlink="http://www.w3.org/1999/xlink" x="0px" y="0px"
	 viewBox="0 0 960 540" style="enable-background:new 0 0 960 540;" xml:space="preserve">
<style type="text/css">
	.st0{fill:#202041;}
	.st1{fill:#32244B;}
	.st2{fill:#472753;}
	.st3{fill:#5C2958;}
	.st4{fill:#712A5A;}
	.st5{fill:#862C5A;}
	.st6{fill:#9A2F56;}
	.st7{fill:#AB344F;}
	.st8{fill:#BA3D47;}
	.st9{fill:#C6493C;}
	.st10{fill:#CE582F;}
	.st11{fill:#D2691E;}
</style>
<path class="st0" d="M0,100l80,54l80-36.7l80-2l80,23.4l80,10.2l80,39.7l80-30.6l80,35.6l80-76.4l80,49.9l80-8.1l80-10.2V541h-80
	h-80h-80h-80h-80h-80h-80h-80h-80h-80H80H0V100z"/>
<path class="st1" d="M0,140.7l80,54l80-44.8l80,16.3l80,30.6l80-19.4l80-16.3l80,59.1l80-30.6l80,30.6l80-21.4l80-50.9l80,63.1v330
	h-80h-80h-80h-80h-80h-80h-80h-80h-80h-80H80H0V140.7z"/>
<path class="st2" d="M0,226.3l80-13.2l80-22.4l80,57l80-13.2l80-27.5l80-17.3l80,50.9l80-64.2l80,46.8l80-35.6l80,38.7l80-56V541
	h-80h-80h-80h-80h-80h-80h-80h-80h-80h-80H80H0V226.3z"/>
<path class="st3" d="M0,241.6l80-25.5l80,39.7l80-19.4l80-12.2l80,20.4l80,17.3l80-16.3l80-14.3l80,2l80,12.2l80-3.1l80,2V541h-80
	h-80h-80h-80h-80h-80h-80h-80h-80h-80H80H0V241.6z"/>
<path class="st4" d="M0,245.6l80-5.1l80,41.8l80-22.4l80-3.1l80,51.9l80-67.2l80,23.4l80-7.1l80,9.2l80,14.3l80-12.2l80-28.5V541
	h-80h-80h-80h-80h-80h-80h-80h-80h-80h-80H80H0V245.6z"/>
<path class="st5" d="M0,297.6l80-7.1l80,5.1l80,1l80,38.7l80-29.5l80,30.6l80-11.2l80,3.1l80-27.5l80,17.3l80-19.4l80-20.4V541h-80
	h-80h-80h-80h-80h-80h-80h-80h-80h-80H80H0V297.6z"/>
<path class="st6" d="M0,327.1l80,1l80,16.3l80,21.4l80-38.7l80,13.2l80,1l80,10.2l80-6.1l80,18.3l80-25.5l80-10.2l80,17.3V541h-80
	h-80h-80h-80h-80h-80h-80h-80h-80h-80H80H0V327.1z"/>
<path class="st7" d="M0,388.2L80,377l80-3.1l80-5.1l80,7.1l80,11.2l80-40.7l80,23.4l80-25.5l80,18.3l80,15.3l80,6.1l80-29.5V541h-80
	h-80h-80h-80h-80h-80h-80h-80h-80h-80H80H0V388.2z"/>
<path class="st8" d="M0,393.3l80,20.4l80-18.3l80-11.2l80-5.1l80,11.2l80-8.1l80,2l80-1l80,36.7l80-19.4l80-20.4l80,15.3V541h-80
	h-80h-80h-80h-80h-80h-80h-80h-80h-80H80H0V393.3z"/>
<path class="st9" d="M0,435.1l80,4.1l80-15.3l80,9.2l80,5.1l80-4.1l80-16.3l80,28.5l80-17.3l80,5.1l80-17.3l80,30.6l80-4.1V541h-80
	h-80h-80h-80h-80h-80h-80h-80h-80h-80H80H0V435.1z"/>
<path class="st10" d="M0,451.4l80,10.2l80,3.1l80,8.1l80,6.1l80-12.2l80,8.1l80-17.3l80,20.4l80-27.5l80,27.5l80-19.4l80,15.3V541
	h-80h-80h-80h-80h-80h-80h-80h-80h-80h-80H80H0V451.4z"/>
<path class="st11" d="M0,503.3L80,487l80,3.1l80,1l80-2l80,15.3l80-19.4l80,3.1l80,10.2l80-10.2l80,14.3l80-4.1l80,7.1V541h-80h-80
	h-80h-80h-80h-80h-80h-80h-80h-80H80H0V503.3z"/>
</svg>
