<?xml version="1.0" encoding="utf-8"?>
<!-- Generator: Adobe Illustrator 26.2.1, SVG Export Plug-In . SVG Version: 6.00 Build 0)  -->
<svg version="1.1" id="Réteg_1" xmlns="http://www.w3.org/2000/svg" xmlns:xlink="http://www.w3.org/1999/xlink" x="0px" y="0px"
	 viewBox="0 0 1920 1080" style="enable-background:new 0 0 1920 1080;" xml:space="preserve">
<style type="text/css">
	.st0{fill:#FA7268;}
	.st1{fill:#EF5F67;}
	.st2{fill:#E34C67;}
	.st3{fill:#D53867;}
	.st4{fill:#C62368;}
</style>
<g>
	<path class="st0" d="M1169.1,0c62.6,0,124.9,0,187.5,0c62.5,0,125.3,0,187.8,0c62.7,0,124.9,0,187.5,0c62.5,0,125.3,0,156.7,0h31.4
		v406l-31.4,2.6c-31.4,2.8-94.2,8-156.7-2.6c-62.7-10.7-124.9-37.5-187.5-39c-62.5-1.5-125.3,22.5-187.8,15.9
		c-62.7-6.6-197.9-61.6-260.6-66.9C1033.5,310.6,1106.6,0,1169.1,0z"/>
	<path class="st1" d="M365,155c27.2-1.6,162.1,71.4,295,88c32,4,129.8-2.9,157-19c21-12.4,36.4,3,99.6,50
		c49.1,36.5,109.5,54.9,170.6,51c25.5-1.6,50.9-5.3,76.3-10.1c63.1-12.1,125.8-31.7,188.9-41.7c63-9.8,126.2-9.8,189.2,5
		c63.1,14.8,125.8,44.5,188.9,40.4c63-3.9,126.2-41.7,157.9-60.5l31.6-18.9V0h-31.6c-31.6,0-94.9,0-157.8,0c-63.1,0-125.8,0-188.9,0
		c-63,0-126.2,0-189.2,0c-63.1,0-125.8,0-188.9,0c-63,0-126.2,0-189.2,0c-63.1,0-125.8,0-188.9,0c-63,0-126.2,0-157.8,0H365V155z"/>
	<path class="st2" d="M568,0h32.3c32.3,0,96.9,0,161.2,0c64.4,0,128.4,0,192.9,0c64.3,0,128.9,0,193.2,0c64.4,0,128.4,0,192.9,0
		c64.3,0,128.9,0,193.2,0c64.5,0,128.4,0,192.9,0c64.3,0,128.9,0,161.2,0h32.3v218.7l-32.3,3.1c-32.3,3.3-96.9,9.5-161.2,18.4
		c-64.4,9-128.4,20.3-192.9,12.6c-64.3-7.8-128.9-34.6-193.2-41.3c-64.4-6.5-128.4,7.2-192.9,20.5c-64.3,13.1-128.9,25.8-193.2,27.7
		c-64.4,2.1-128.4-6.5-192.9-25.5c-64.3-18.9-128.9-48.2-161.2-62.9L567,156L568,0z"/>
	<path class="st3" d="M1920,198l-31.4-6.3c-31.4-6.4-94.2-19-156.8-21.8c-62.7-2.8-124.9,4.5-187.6,10.7
		c-62.5,6.3-125.4,11.9-187.9,3c-62.7-8.7-124.9-31.8-187.6-47.2c-62.5-15.5-125.4-23.1-187.9-23.1c-62.7,0-124.9,7.6-187.6,15
		c-62.5,7.4-125.4,14.7-156.8,18.2l-31.4,3.6V0h31.4c31.4,0,94.2,0,156.8,0c62.7,0,124.9,0,187.6,0c62.5,0,125.4,0,187.9,0
		c62.7,0,124.9,0,187.6,0c62.5,0,125.4,0,187.9,0c62.7,0,124.9,0,187.6,0c62.5,0,125.4,0,156.8,0h31.4V198z"/>
	<path class="st4" d="M1920,149.7l-45.9-10.1c-45.9-9.9-137.6-30.2-228.9-31.4c-91.5-1.2-182.4,16.7-273.9,14.5
		c-91.3-1.9-183-23.7-274.4-32.6c-91.5-8.7-182.4-4.8-273.9,12.1C731.7,119,640,149,548.7,158.9c-91.5,10.1-182.4,0.5-273.9-1.2
		c-91.3-1.5-183,4.8-228.9,8.2L0,169V0h45.9c45.9,0,137.6,0,228.9,0c91.5,0,182.4,0,273.9,0c91.3,0,183,0,274.3,0
		c91.5,0,182.4,0,273.9,0c91.3,0,183,0,274.3,0c91.5,0,182.4,0,273.9,0c91.3,0,183,0,228.9,0h45.8V149.7z"/>
</g>
</svg>
