<svg xmlns="http://www.w3.org/2000/svg" x="0px" y="0px" viewBox="0 0 1920 1080">
	<path fill="#FA7268" d="M750.92,1080c-62.65,0-124.86,0-187.51,0c-62.5,0-125.3,0-187.8,0c-62.65,0-124.86,0-187.51,0
                    c-62.5,0-125.3,0-156.7,0H0l0-405.98l31.4-2.63c31.4-2.77,94.19-8.03,156.7,2.63c62.65,10.66,124.86,37.53,187.51,38.99
                    c62.5,1.46,125.3-22.49,187.8-15.92C626.06,703.66,761.35,758.74,824,764C886.5,769.4,813.43,1080,750.92,1080z"/>
	<path fill="#EF5F67" d="M1555,925c-27.24,1.6-162.07-71.38-295-88c-32-4-129.8,2.94-157,19c-20.98,12.39-36.36-2.98-99.57-50.03
                    c-49.1-36.55-109.55-54.93-170.64-51.01c-25.47,1.63-50.93,5.26-76.34,10.12c-63.11,12.06-125.78,31.71-188.89,41.73
                    c-62.96,9.83-126.22,9.83-189.18-5.01c-63.11-14.84-125.78-44.51-188.89-40.43c-62.96,3.89-126.22,41.73-157.85,60.46L0,840.75V1080
                    h31.63c31.63,0,94.89,0,157.85,0c63.11,0,125.78,0,188.89,0c62.96,0,126.22,0,189.18,0c63.11,0,125.78,0,188.89,0
                    c62.96,0,126.22,0,189.18,0c63.11,0,125.78,0,188.89,0c62.96,0,126.22,0,157.85,0H1555V925z"/>
	<path fill="#E34C67" d="M1352,1080h-32.3c-32.3,0-96.89,0-161.19,0c-64.45,0-128.44,0-192.89,0c-64.3,0-128.89,0-193.19,0
                    c-64.45,0-128.44,0-192.89,0c-64.3,0-128.89,0-193.19,0c-64.45,0-128.44,0-192.89,0c-64.3,0-128.89,0-161.19,0H0l0-218.71l32.3-3.1
                    c32.3-3.27,96.89-9.47,161.19-18.43c64.45-8.96,128.44-20.32,192.89-12.57c64.3,7.75,128.89,34.62,193.19,41.33
                    c64.45,6.54,128.44-7.23,192.89-20.49c64.3-13.09,128.89-25.83,193.19-27.73c64.45-2.07,128.44,6.54,192.89,25.49
                    c64.3,18.94,128.89,48.22,161.19,62.86L1353,924L1352,1080z"/>
	<path fill="#D53867" d="M0,882l31.41,6.27c31.41,6.44,94.24,18.98,156.78,21.78c62.68,2.81,124.93-4.46,187.61-10.72
                    c62.54-6.27,125.36-11.88,187.9-2.97c62.68,8.74,124.92,31.84,187.61,47.19c62.54,15.51,125.36,23.1,187.9,23.1
                    c62.68,0,124.92-7.59,187.61-15.01c62.54-7.42,125.36-14.68,156.78-18.15l31.41-3.63V1080h-31.41c-31.41,0-94.24,0-156.78,0
                    c-62.68,0-124.93,0-187.61,0c-62.54,0-125.36,0-187.9,0c-62.68,0-124.92,0-187.61,0c-62.54,0-125.36,0-187.9,0
                    c-62.68,0-124.93,0-187.61,0c-62.54,0-125.36,0-156.78,0H0V882z"/>
	<path fill="#C62368" d="M0,930.31l45.87,10.14c45.87,9.9,137.6,30.18,228.91,31.39c91.52,1.21,182.4-16.66,273.92-14.49
                    c91.31,1.93,183.04,23.66,274.35,32.59c91.52,8.69,182.4,4.83,273.92-12.07c91.31-16.9,183.04-46.84,274.35-56.74
                    c91.52-10.14,182.4-0.48,273.92,1.21c91.31,1.45,183.04-4.83,228.91-8.21L1920,911v169h-45.87c-45.87,0-137.6,0-228.91,0
                    c-91.52,0-182.4,0-273.92,0c-91.31,0-183.04,0-274.35,0c-91.52,0-182.4,0-273.92,0c-91.31,0-183.04,0-274.35,0
                    c-91.52,0-182.4,0-273.92,0c-91.31,0-183.04,0-228.91,0H0V930.31z"/>
</svg>
