<?xml version="1.0" encoding="utf-8"?>
<!-- Generator: Adobe Illustrator 26.2.1, SVG Export Plug-In . SVG Version: 6.00 Build 0)  -->
<svg version="1.1" id="Réteg_1" xmlns="http://www.w3.org/2000/svg" xmlns:xlink="http://www.w3.org/1999/xlink" x="0px" y="0px"
	 viewBox="0 0 1920 1080" style="enable-background:new 0 0 1920 1080;" xml:space="preserve">
<style type="text/css">
	.st0{fill:#FA7268;}
	.st1{fill:#EF5F67;}
	.st2{fill:#E34C67;}
	.st3{fill:#D53867;}
	.st4{fill:#C62368;}
</style>
<path class="st0" d="M1120.6-0.5c-42.6,89.2-69.9,258.2-24,262.2c62.7,5.3,197.9,60.3,260.6,66.9c62.5,6.6,125.3-17.4,187.8-15.9
	c62.7,1.5,124.9,28.3,187.5,39c62.5,10.7,125.3,5.4,156.7,2.6l31.4-2.6V-0.5H1120.6z"/>
<path class="st1" d="M365.7-0.5v101.2c27.2-1.6,162.1,71.4,295,88c32,4,129.8-2.9,157-19c21-12.4,36.4,3,99.6,50
	c49.1,36.5,109.5,54.9,170.6,51c25.5-1.6,50.9-5.3,76.3-10.1c63.1-12.1,125.8-31.7,188.9-41.7c63-9.8,126.2-9.8,189.2,5
	c63.1,14.8,125.8,44.5,188.9,40.4c63-3.9,126.2-41.7,157.8-60.5l31.6-18.9V-0.5H365.7z"/>
<path class="st2" d="M568.3-0.5l-0.7,102.2l33.3,15.3c32.3,14.6,96.9,43.9,161.2,62.9c64.4,19,128.4,27.6,192.9,25.5
	c64.3-1.9,128.9-14.6,193.2-27.7c64.4-13.3,128.4-27,192.9-20.5c64.3,6.7,128.9,33.6,193.2,41.3c64.5,7.8,128.4-3.6,192.9-12.6
	c64.3-9,128.9-15.2,161.2-18.4l32.3-3.1V-0.5H568.3z"/>
<path class="st3" d="M605.7-0.5v96.3l31.4-3.6c31.4-3.5,94.2-10.7,156.8-18.2c62.7-7.4,124.9-15,187.6-15
	c62.5,0,125.4,7.6,187.9,23.1c62.7,15.3,124.9,38.5,187.6,47.2c62.5,8.9,125.4,3.3,187.9-3c62.7-6.3,124.9-13.5,187.6-10.7
	c62.5,2.8,125.4,15.3,156.8,21.8l31.4,6.3V-0.5H605.7z"/>
<path class="st4" d="M0.7-0.5v115.2l45.8-3.1c45.9-3.4,137.6-9.7,228.9-8.2c91.5,1.7,182.4,11.4,273.9,1.2
	c91.3-9.9,183-39.8,274.3-56.7c91.5-16.9,182.4-20.8,273.9-12.1c91.3,8.9,183,30.7,274.4,32.6c91.5,2.2,182.4-15.7,273.9-14.5
	c91.3,1.2,183,21.5,228.9,31.4l45.9,10.1V-0.5H0.7z"/>
</svg>
