<?xml version="1.0" encoding="utf-8"?>
<!-- Generator: Adobe Illustrator 26.2.1, SVG Export Plug-In . SVG Version: 6.00 Build 0)  -->
<svg version="1.1" id="Réteg_1" xmlns="http://www.w3.org/2000/svg" xmlns:xlink="http://www.w3.org/1999/xlink" x="0px" y="0px"
	 viewBox="0 0 1920 1080" style="enable-background:new 0 0 1920 1080;" xml:space="preserve">
<style type="text/css">
	.st0{fill:#FA7268;}
	.st1{fill:#EF5F67;}
	.st2{fill:#E34C67;}
	.st3{fill:#D53867;}
	.st4{fill:#C62368;}
</style>
<path class="st0" d="M824.9,1081.4c25.9-87.9,34.8-191.8-1.1-195c-62.7-5.3-197.9-60.3-260.6-66.9c-62.5-6.6-125.3,17.4-187.8,15.9
	c-62.6-1.5-124.9-28.3-187.5-39c-62.5-10.7-125.3-5.4-156.7-2.6l-31.4,2.6v285H824.9z"/>
<path class="st1" d="M1546.6,1081.4l-4.5-21.4c-27.2,1.6-149.4-84-282.3-100.6c-32-4-147.4-23-174.6-6.9c-21,12.4-18.8,22.9-82-24.1
	c-49.1-36.5-109.5-54.9-170.6-51c-25.5,1.6-50.9,5.3-76.3,10.1c-63.1,12.1-125.8,31.7-188.9,41.7c-63,9.8-126.2,9.8-189.2-5
	c-63.1-14.8-125.8-44.5-188.9-40.4c-63,3.9-126.2,41.7-157.8,60.5l-31.7,18.8v118.3H1546.6z"/>
<path class="st2" d="M1361.6,1081.4l14.6-54.9l-56.7-26.8c-32.3-14.6-96.9-43.9-161.2-62.9c-64.4-19-128.4-27.6-192.9-25.5
	c-64.3,1.9-128.9,14.6-193.2,27.7c-64.5,13.3-128.4,27-192.9,20.5c-64.3-6.7-128.9-33.6-193.2-41.3c-64.5-7.8-128.4,3.6-192.9,12.6
	c-64.3,9-128.9,15.2-161.2,18.4l-32.2,3.1v129.1H1361.6z"/>
<path class="st3" d="M1326.7,1023.1l-41,4.6c-31.4,3.5-95.3,9.5-157.9,17c-62.7,7.4-126,4.9-188.7,4.9c-62.5,0-125.4-7.6-187.9-23.1
	c-62.7-15.3-124.9-38.5-187.6-47.2c-62.5-8.9-125.4-3.3-187.9,3c-62.7,6.3-124.9,13.5-187.6,10.7c-62.5-2.8-125.4-15.3-156.8-21.8
	l-31.4-6.3v115.9h1318.9L1326.7,1023.1z"/>
<path class="st4" d="M1920.1,1016.2l-45.9,2c-46,2.3-137.8,6.5-229,2.8c-91.4-3.8-182.1-15.7-273.8-7.6
	c-91.5,7.8-183.9,35.5-275.6,50.2c-91.9,14.7-182.8,16.5-274.1,5.7c-91.1-11-182.2-35-273.6-39c-91.4-4.3-182.7,11.4-274.2,8.1
	c-91.2-3.3-182.4-25.8-228.1-36.8L0.2,990.4l-0.1,90.3l1920.1-0.3L1920.1,1016.2z"/>
</svg>
