<?xml version="1.0" encoding="utf-8"?>
<!-- Generator: Adobe Illustrator 26.2.1, SVG Export Plug-In . SVG Version: 6.00 Build 0)  -->
<svg version="1.1" id="Réteg_1" xmlns="http://www.w3.org/2000/svg" xmlns:xlink="http://www.w3.org/1999/xlink" x="0px" y="0px"
	 viewBox="0 0 1152 622" style="enable-background:new 0 0 1152 622;" xml:space="preserve">
<style type="text/css">
	.st0{fill:#D2691E;}
</style>
<path class="st0" d="M307.1-0.2C147.9-0.2,26.3,114.7,49.9,242.4c2.4,13,5.2,25.5,8.4,37.4c24.3,92.2,53.1,172.5,105.7,237.7
	c5.9,7.3,12.1,14.5,18.6,21.4c49,52.6,125.7,83.2,207,83.2h380.2c59.4,0,117.5-13.5,168-38.8c55.3-27.7,105.2-49.6,126.9-84.4
	c31.8-50.7,3.4-129,38.2-224.1c0.3-0.9,0.7-1.8,1-2.7c51-135.5-74.3-272.4-248.8-272.4L307.1-0.2z"/>
</svg>
