<?xml version="1.0" encoding="utf-8"?>
<svg version="1.1" id="Réteg_1" xmlns="http://www.w3.org/2000/svg" xmlns:xlink="http://www.w3.org/1999/xlink" x="0px" y="0px"
	 viewBox="0 0 350 350" style="enable-background:new 0 0 350 350;" xml:space="preserve">
<style type="text/css">
	.st0{fill:#F8B310;}
	.st1{fill:#F6B210;}
	.st2{fill:#F9B515;}
	.st3{fill:#FABE43;}
	.st4{fill:#F9B414;}
	.st5{fill:#FBBF47;}
	.st6{fill:#FABE44;}
	.st7{fill:#FBC049;}
	.st8{fill:#FBC350;}
	.st9{fill:#F9B517;}
	.st10{fill:#F9B412;}
	.st11{fill:#FABD40;}
	.st12{fill:#F9B411;}
	.st13{fill:#FBC65B;}
	.st14{fill:#FBD17C;}
	.st15{fill:#FBBF48;}
	.st16{fill:#F9B514;}
	.st17{fill:#FABE42;}
	.st18{fill:#F9B413;}
	.st19{fill:#FFFFFF;}
	.st20{fill:#FBBF45;}
	.st21{fill:#F9B410;}
	.st22{fill:#FBC351;}
</style>
<g>
	<rect x="209.1" y="317.8" class="st0" width="13.6" height="13.6"/>
	<rect x="127.5" y="317.8" class="st1" width="13.6" height="13.6"/>
	<rect x="195.5" y="304.2" class="st2" width="13.6" height="13.6"/>
	<rect x="181.9" y="304.2" class="st3" width="13.6" height="13.6"/>
	<rect x="154.7" y="304.2" class="st3" width="13.6" height="13.6"/>
	<rect x="141.1" y="304.2" class="st4" width="13.6" height="13.6"/>
	<rect x="209.1" y="277" class="st5" width="13.6" height="13.6"/>
	<rect x="127.5" y="277" class="st5" width="13.6" height="13.6"/>
	<rect x="86.7" y="277" class="st6" width="13.6" height="13.6"/>
	<rect x="236.3" y="263.4" class="st7" width="13.6" height="13.6"/>
	<rect x="59.5" y="209" class="st8" width="13.6" height="13.6"/>
	<rect x="304.3" y="195.4" class="st9" width="13.6" height="13.6"/>
	<rect x="32.3" y="195.4" class="st10" width="13.6" height="13.6"/>
	<rect x="32.3" y="181.8" class="st11" width="13.6" height="13.6"/>
	<rect x="32.3" y="154.6" class="st11" width="13.6" height="13.6"/>
	<rect x="304.3" y="141" class="st9" width="13.6" height="13.6"/>
	<rect x="32.3" y="141" class="st12" width="13.6" height="13.6"/>
	<rect x="59.5" y="127.4" class="st8" width="13.6" height="13.6"/>
	<rect x="45.9" y="113.8" class="st13" width="13.6" height="13.6"/>
	<rect x="263.5" y="100.2" class="st7" width="13.6" height="13.6"/>
	<rect x="73.1" y="100.2" class="st14" width="13.6" height="13.6"/>
	<rect x="86.7" y="86.6" class="st8" width="13.6" height="13.6"/>
	<rect x="236.3" y="73" class="st7" width="13.6" height="13.6"/>
	<rect x="100.3" y="73" class="st15" width="13.6" height="13.6"/>
	<rect x="195.5" y="32.2" class="st16" width="13.6" height="13.6"/>
	<rect x="181.9" y="32.2" class="st3" width="13.6" height="13.6"/>
	<rect x="154.7" y="32.2" class="st17" width="13.6" height="13.6"/>
	<rect x="141.1" y="32.2" class="st18" width="13.6" height="13.6"/>
	<rect x="86.7" y="263.4" class="st19" width="13.6" height="13.6"/>
	<rect x="73.1" y="249.8" class="st19" width="13.6" height="13.6"/>
	<polygon class="st19" points="45.9,141 45.9,154.6 45.9,168.2 45.9,181.8 45.9,195.4 45.9,209 45.9,222.6 45.9,236.2 59.5,236.2 
		59.5,249.8 73.1,249.8 73.1,236.2 73.1,222.6 59.5,222.6 59.5,209 59.5,195.4 59.5,181.8 59.5,168.2 59.5,154.6 59.5,141 
		59.5,127.4 45.9,127.4 	"/>
	<polygon class="st19" points="59.5,113.8 59.5,127.4 73.1,127.4 73.1,113.8 73.1,100.2 59.5,100.2 	"/>
	<rect x="73.1" y="86.6" class="st19" width="13.6" height="13.6"/>
	<rect x="86.7" y="73" class="st19" width="13.6" height="13.6"/>
	<rect x="73.1" y="263.4" class="st20" width="13.6" height="13.6"/>
	<rect x="59.5" y="249.8" class="st20" width="13.6" height="13.6"/>
	<rect x="45.9" y="222.6" class="st20" width="13.6" height="13.6"/>
	<rect x="32.3" y="168.2" class="st20" width="13.6" height="13.6"/>
	<polygon class="st20" points="304.3,141 304.3,127.4 304.3,113.8 290.7,113.8 290.7,100.2 290.7,86.6 277.1,86.6 277.1,73 
		263.5,73 263.5,59.4 249.9,59.4 236.3,59.4 236.3,45.8 222.7,45.8 209.1,45.8 195.5,45.8 181.9,45.8 181.9,32.2 168.3,32.2 
		168.3,45.8 154.7,45.8 141.1,45.8 127.5,45.8 113.9,45.8 113.9,59.4 100.3,59.4 86.7,59.4 86.7,73 100.3,73 113.9,73 127.5,73 
		127.5,59.4 141.1,59.4 154.7,59.4 168.3,59.4 181.9,59.4 195.5,59.4 209.1,59.4 222.7,59.4 222.7,73 236.3,73 249.9,73 249.9,86.6 
		263.5,86.6 263.5,100.2 277.1,100.2 277.1,113.8 277.1,127.4 290.7,127.4 290.7,141 290.7,154.6 290.7,168.2 290.7,181.8 
		290.7,195.4 290.7,209 290.7,222.6 277.1,222.6 277.1,236.2 263.5,236.2 263.5,249.8 263.5,263.4 249.9,263.4 249.9,277 236.3,277 
		222.7,277 222.7,290.6 209.1,290.6 195.5,290.6 181.9,290.6 168.3,290.6 154.7,290.6 141.1,290.6 127.5,290.6 127.5,277 113.9,277 
		100.3,277 100.3,290.6 113.9,290.6 113.9,304.2 127.5,304.2 141.1,304.2 154.7,304.2 168.3,304.2 168.3,317.8 181.9,317.8 
		181.9,304.2 195.5,304.2 209.1,304.2 222.7,304.2 236.3,304.2 236.3,290.6 249.9,290.6 263.5,290.6 263.5,277 277.1,277 
		277.1,263.4 290.7,263.4 290.7,249.8 290.7,236.2 304.3,236.2 304.3,222.6 304.3,209 304.3,195.4 317.9,195.4 317.9,181.8 
		317.9,168.2 317.9,154.6 304.3,154.6 	"/>
	<rect x="59.5" y="86.6" class="st20" width="13.6" height="13.6"/>
	<rect x="73.1" y="73" class="st20" width="13.6" height="13.6"/>
	<polygon class="st21" points="181.9,317.8 168.3,317.8 154.7,317.8 141.1,317.8 141.1,331.4 154.7,331.4 168.3,331.4 181.9,331.4 
		195.5,331.4 209.1,331.4 209.1,317.8 195.5,317.8 	"/>
	<polygon class="st21" points="317.9,113.8 317.9,100.2 304.3,100.2 304.3,86.6 304.3,73 290.7,73 290.7,59.4 277.1,59.4 
		277.1,45.8 263.5,45.8 249.9,45.8 249.9,32.2 236.3,32.2 222.7,32.2 222.7,18.6 209.1,18.6 195.5,18.6 181.9,18.6 168.3,18.6 
		154.7,18.6 141.1,18.6 127.5,18.6 127.5,32.2 113.9,32.2 100.3,32.2 100.3,45.8 86.7,45.8 73.1,45.8 73.1,59.4 59.5,59.4 59.5,73 
		45.9,73 45.9,86.6 45.9,100.2 32.3,100.2 32.3,113.8 32.3,127.4 18.7,127.4 18.7,141 18.7,154.6 18.7,168.2 18.7,181.8 18.7,195.4 
		18.7,209 18.7,222.6 32.3,222.6 32.3,236.2 32.3,249.8 45.9,249.8 45.9,263.4 45.9,277 59.5,277 59.5,290.6 73.1,290.6 73.1,304.2 
		86.7,304.2 100.3,304.2 100.3,317.8 113.9,317.8 127.5,317.8 141.1,317.8 141.1,304.2 127.5,304.2 113.9,304.2 113.9,290.6 
		100.3,290.6 86.7,290.6 86.7,277 73.1,277 73.1,263.4 59.5,263.4 59.5,249.8 59.5,236.2 45.9,236.2 45.9,222.6 45.9,209 32.3,209 
		32.3,195.4 32.3,181.8 32.3,168.2 32.3,154.6 32.3,141 45.9,141 45.9,127.4 45.9,113.8 59.5,113.8 59.5,100.2 59.5,86.6 73.1,86.6 
		73.1,73 86.7,73 86.7,59.4 100.3,59.4 113.9,59.4 113.9,45.8 127.5,45.8 141.1,45.8 141.1,32.2 154.7,32.2 168.3,32.2 181.9,32.2 
		195.5,32.2 209.1,32.2 209.1,45.8 222.7,45.8 236.3,45.8 236.3,59.4 249.9,59.4 263.5,59.4 263.5,73 277.1,73 277.1,86.6 
		290.7,86.6 290.7,100.2 290.7,113.8 304.3,113.8 304.3,127.4 304.3,141 317.9,141 317.9,154.6 317.9,168.2 317.9,181.8 
		317.9,195.4 317.9,209 304.3,209 304.3,222.6 304.3,236.2 290.7,236.2 290.7,249.8 290.7,263.4 277.1,263.4 277.1,277 263.5,277 
		263.5,290.6 249.9,290.6 236.3,290.6 236.3,304.2 222.7,304.2 209.1,304.2 209.1,317.8 222.7,317.8 236.3,317.8 249.9,317.8 
		249.9,304.2 263.5,304.2 277.1,304.2 277.1,290.6 290.7,290.6 290.7,277 304.3,277 304.3,263.4 304.3,249.8 317.9,249.8 
		317.9,236.2 317.9,222.6 331.5,222.6 331.5,209 331.5,195.4 331.5,181.8 331.5,168.2 331.5,154.6 331.5,141 331.5,127.4 
		317.9,127.4 	"/>
	<polygon points="195.5,331.4 181.9,331.4 168.3,331.4 154.7,331.4 141.1,331.4 127.5,331.4 127.5,345 141.1,345 154.7,345 
		168.3,345 181.9,345 195.5,345 209.1,345 222.7,345 222.7,331.4 209.1,331.4 	"/>
	<polygon points="222.7,317.8 222.7,331.4 236.3,331.4 249.9,331.4 249.9,317.8 236.3,317.8 	"/>
	<polygon points="113.9,317.8 100.3,317.8 100.3,331.4 113.9,331.4 127.5,331.4 127.5,317.8 	"/>
	<polygon points="249.9,304.2 249.9,317.8 263.5,317.8 277.1,317.8 277.1,304.2 263.5,304.2 	"/>
	<polygon points="86.7,304.2 73.1,304.2 73.1,317.8 86.7,317.8 100.3,317.8 100.3,304.2 	"/>
	<rect x="277.1" y="290.6" width="13.6" height="13.6"/>
	<rect x="59.5" y="290.6" width="13.6" height="13.6"/>
	<rect x="290.7" y="277" width="13.6" height="13.6"/>
	<rect x="45.9" y="277" width="13.6" height="13.6"/>
	<polygon points="304.3,263.4 304.3,277 317.9,277 317.9,263.4 317.9,249.8 304.3,249.8 	"/>
	<polygon points="45.9,249.8 32.3,249.8 32.3,263.4 32.3,277 45.9,277 45.9,263.4 	"/>
	<polygon points="317.9,236.2 317.9,249.8 331.5,249.8 331.5,236.2 331.5,222.6 317.9,222.6 	"/>
	<polygon points="32.3,222.6 18.7,222.6 18.7,236.2 18.7,249.8 32.3,249.8 32.3,236.2 	"/>
	<polygon points="18.7,195.4 18.7,181.8 18.7,168.2 18.7,154.6 18.7,141 18.7,127.4 5.1,127.4 5.1,141 5.1,154.6 5.1,168.2 
		5.1,181.8 5.1,195.4 5.1,209 5.1,222.6 18.7,222.6 18.7,209 	"/>
	<polygon points="331.5,141 331.5,154.6 331.5,168.2 331.5,181.8 331.5,195.4 331.5,209 331.5,222.6 345.1,222.6 345.1,209 
		345.1,195.4 345.1,181.8 345.1,168.2 345.1,154.6 345.1,141 345.1,127.4 331.5,127.4 	"/>
	<polygon points="317.9,127.4 331.5,127.4 331.5,113.8 331.5,100.2 317.9,100.2 317.9,113.8 	"/>
	<polygon points="32.3,113.8 32.3,100.2 18.7,100.2 18.7,113.8 18.7,127.4 32.3,127.4 	"/>
	<polygon points="304.3,100.2 317.9,100.2 317.9,86.6 317.9,73 304.3,73 304.3,86.6 	"/>
	<polygon points="45.9,86.6 45.9,73 32.3,73 32.3,86.6 32.3,100.2 45.9,100.2 	"/>
	<rect x="290.7" y="59.4" width="13.6" height="13.6"/>
	<rect x="45.9" y="59.4" width="13.6" height="13.6"/>
	<rect x="277.1" y="45.8" width="13.6" height="13.6"/>
	<rect x="59.5" y="45.8" width="13.6" height="13.6"/>
	<polygon points="263.5,45.8 277.1,45.8 277.1,32.2 263.5,32.2 249.9,32.2 249.9,45.8 	"/>
	<polygon points="100.3,45.8 100.3,32.2 86.7,32.2 73.1,32.2 73.1,45.8 86.7,45.8 	"/>
	<polygon points="236.3,32.2 249.9,32.2 249.9,18.6 236.3,18.6 222.7,18.6 222.7,32.2 	"/>
	<polygon points="127.5,32.2 127.5,18.6 113.9,18.6 100.3,18.6 100.3,32.2 113.9,32.2 	"/>
	<polygon points="154.7,18.6 168.3,18.6 181.9,18.6 195.5,18.6 209.1,18.6 222.7,18.6 222.7,5 209.1,5 195.5,5 181.9,5 168.3,5 
		154.7,5 141.1,5 127.5,5 127.5,18.6 141.1,18.6 	"/>
	<rect x="222.7" y="69.8" class="st22" width="0.7" height="3.2"/>
	<polygon class="st22" points="290.7,127.4 290.7,222.6 277.1,222.6 277.1,236.2 263.5,236.2 263.5,263.4 236.3,263.4 236.3,277 
		221.4,277 221.4,277.4 209.1,277.4 209.1,290.6 141.1,290.6 141.1,277.4 108.9,277.4 108.9,263.4 86.7,263.4 86.7,249.8 
		73.1,249.8 73.1,209 59.5,209 59.5,141 73.1,141 73.1,113.8 86.7,113.8 86.7,100.2 100.3,100.2 100.3,86.6 113.9,86.6 113.9,73 
		127.5,73 127.5,59.4 222.7,59.4 222.7,73 236.3,73 236.3,86.6 263.5,86.6 263.5,113.8 277.1,113.8 277.1,127.4 	"/>
	<rect x="235.6" y="221.5" class="st14" width="13.6" height="13.6"/>
	<rect x="167.9" y="208.1" class="st14" width="13.6" height="13.6"/>
	<rect x="235.6" y="208.1" class="st14" width="13.6" height="13.6"/>
	<rect x="181.4" y="194.5" class="st14" width="13.6" height="13.6"/>
	<rect x="194.9" y="181" class="st14" width="13.6" height="13.6"/>
	<rect x="208.5" y="262.1" class="st14" width="13.6" height="13.6"/>
	<rect x="222" y="248.5" class="st14" width="13.6" height="13.6"/>
	<rect x="235.6" y="235.1" class="st14" width="13.6" height="13.6"/>
	<rect x="208.5" y="113.8" class="st14" width="13.6" height="13.6"/>
	<rect x="194.9" y="100.3" class="st14" width="13.6" height="13.6"/>
	<rect x="208.5" y="100.3" class="st14" width="13.6" height="13.6"/>
	<rect x="127.3" y="100.3" class="st14" width="13.6" height="13.6"/>
	<rect x="208.5" y="86.7" class="st14" width="13.6" height="13.6"/>
	<rect x="208.5" y="140.8" class="st14" width="13.6" height="13.6"/>
	<rect x="208.5" y="127.4" class="st14" width="13.6" height="13.6"/>
	<rect x="208.7" y="167.6" class="st14" width="13.6" height="13.6"/>
	<rect x="181.6" y="262.2" class="st14" width="13.6" height="13.6"/>
	<rect x="195.2" y="262.2" class="st14" width="13.6" height="13.6"/>
	<rect x="168.1" y="262.2" class="st14" width="13.6" height="13.6"/>
	<rect x="181.6" y="100.4" class="st14" width="13.6" height="13.6"/>
	<rect x="154.6" y="100.4" class="st14" width="13.6" height="13.6"/>
	<rect x="168.1" y="100.4" class="st14" width="13.6" height="13.6"/>
	<rect x="208.7" y="86.9" class="st14" width="13.6" height="13.6"/>
	<rect x="127.5" y="86.9" class="st14" width="13.6" height="13.6"/>
	<rect x="195.2" y="141" class="st14" width="13.6" height="13.6"/>
	<g>
		<rect x="168.9" y="221.5" class="st21" width="13.6" height="13.6"/>
		<rect x="209.5" y="181" class="st21" width="13.6" height="13.6"/>
		<rect x="223" y="194.5" class="st21" width="13.6" height="13.6"/>
		<rect x="168.9" y="275.6" class="st14" width="13.6" height="13.6"/>
		<rect x="182.4" y="275.6" class="st14" width="13.6" height="13.6"/>
		<rect x="195.9" y="275.6" class="st14" width="13.6" height="13.6"/>
		<rect x="155.3" y="275.6" class="st14" width="13.6" height="13.6"/>
		<rect x="141.8" y="262.1" class="st14" width="13.6" height="13.6"/>
		<rect x="128.3" y="248.5" class="st14" width="13.6" height="13.6"/>
		<rect x="182.4" y="235.1" class="st21" width="13.6" height="13.6"/>
		<rect x="114.7" y="235.1" class="st14" width="13.6" height="13.6"/>
		<rect x="168.9" y="113.8" class="st21" width="13.6" height="13.6"/>
		<rect x="182.4" y="113.8" class="st21" width="13.6" height="13.6"/>
		<rect x="141.8" y="113.8" class="st21" width="13.6" height="13.6"/>
		<rect x="155.3" y="113.8" class="st21" width="13.6" height="13.6"/>
		<rect x="182.4" y="154.4" class="st14" width="13.6" height="13.6"/>
		<rect x="195.9" y="154.4" class="st14" width="13.6" height="13.6"/>
		<rect x="182.6" y="208.1" class="st21" width="13.6" height="13.6"/>
		<rect x="250.3" y="208.1" class="st14" width="13.6" height="13.6"/>
		<rect x="128.5" y="208.1" class="st21" width="13.6" height="13.6"/>
		<rect x="182.6" y="194.7" class="st21" width="13.6" height="13.6"/>
		<rect x="250.3" y="194.7" class="st14" width="13.6" height="13.6"/>
		<rect x="128.5" y="194.7" class="st21" width="13.6" height="13.6"/>
		<rect x="196.2" y="181.1" class="st21" width="13.6" height="13.6"/>
		<rect x="223.2" y="167.6" class="st14" width="13.6" height="13.6"/>
		<rect x="236.8" y="181.1" class="st14" width="13.6" height="13.6"/>
		<rect x="128.5" y="181.1" class="st21" width="13.6" height="13.6"/>
		<rect x="128.5" y="167.6" class="st21" width="13.6" height="13.6"/>
		<rect x="209.7" y="262.2" class="st14" width="13.6" height="13.6"/>
		<rect x="223.2" y="248.7" class="st14" width="13.6" height="13.6"/>
		<rect x="155.6" y="248.7" class="st21" width="13.6" height="13.6"/>
		<rect x="236.8" y="235.1" class="st14" width="13.6" height="13.6"/>
		<rect x="142" y="235.1" class="st21" width="13.6" height="13.6"/>
		<rect x="196.2" y="221.7" class="st21" width="13.6" height="13.6"/>
		<rect x="250.3" y="221.7" class="st14" width="13.6" height="13.6"/>
		<rect x="128.5" y="221.7" class="st21" width="13.6" height="13.6"/>
		<rect x="196.2" y="100.4" class="st21" width="13.6" height="13.6"/>
		<rect x="223.2" y="100.4" class="st14" width="13.6" height="13.6"/>
		<rect x="128.5" y="100.4" class="st21" width="13.6" height="13.6"/>
		<rect x="223.2" y="86.9" class="st14" width="13.6" height="13.6"/>
		<rect x="142" y="86.9" class="st14" width="13.6" height="13.6"/>
		<rect x="223.2" y="73.3" class="st14" width="13.6" height="13.6"/>
		<rect x="128.5" y="73.3" class="st14" width="13.6" height="13.6"/>
		<rect x="128.5" y="154.4" class="st21" width="13.6" height="13.6"/>
		<rect x="209.7" y="141" class="st14" width="13.6" height="13.6"/>
		<rect x="128.5" y="141" class="st21" width="13.6" height="13.6"/>
		<rect x="223.2" y="127.4" class="st14" width="13.6" height="13.6"/>
		<rect x="128.5" y="127.4" class="st21" width="13.6" height="13.6"/>
		<rect x="223.2" y="114" class="st14" width="13.6" height="13.6"/>
		<rect x="128.5" y="114" class="st21" width="13.6" height="13.6"/>
		<g>
			<rect x="169" y="208.2" width="13.6" height="13.6"/>
			<rect x="236.7" y="208.2" width="13.6" height="13.6"/>
			<rect x="114.9" y="208.2" width="13.6" height="13.6"/>
			<rect x="169" y="194.7" width="13.6" height="13.6"/>
			<rect x="236.7" y="194.7" width="13.6" height="13.6"/>
			<rect x="114.9" y="194.7" width="13.6" height="13.6"/>
			<rect x="182.6" y="181.1" width="13.6" height="13.6"/>
			<rect x="209.6" y="167.7" width="13.6" height="13.6"/>
			<rect x="223.2" y="181.1" width="13.6" height="13.6"/>
			<rect x="114.9" y="181.1" width="13.6" height="13.6"/>
			<rect x="196.1" y="167.7" width="13.6" height="13.6"/>
			<rect x="114.9" y="167.7" width="13.6" height="13.6"/>
			<rect x="169" y="262.2" width="13.6" height="13.6"/>
			<rect x="182.6" y="262.2" width="13.6" height="13.6"/>
			<rect x="196.1" y="262.2" width="13.6" height="13.6"/>
			<rect x="155.5" y="262.2" width="13.6" height="13.6"/>
			<rect x="209.6" y="248.8" width="13.6" height="13.6"/>
			<rect x="141.9" y="248.8" width="13.6" height="13.6"/>
			<rect x="223.2" y="235.2" width="13.6" height="13.6"/>
			<rect x="128.4" y="235.2" width="13.6" height="13.6"/>
			<rect x="182.6" y="221.7" width="13.6" height="13.6"/>
			<rect x="236.7" y="221.7" width="13.6" height="13.6"/>
			<rect x="114.9" y="221.7" width="13.6" height="13.6"/>
			<rect x="169" y="100.4" width="13.6" height="13.6"/>
			<rect x="182.6" y="100.4" width="13.6" height="13.6"/>
			<rect x="209.6" y="100.4" width="13.6" height="13.6"/>
			<rect x="114.9" y="100.4" width="13.6" height="13.6"/>
			<rect x="141.9" y="100.4" width="13.6" height="13.6"/>
			<rect x="155.5" y="100.4" width="13.6" height="13.6"/>
			<rect x="196.1" y="87" width="13.6" height="13.6"/>
			<rect x="209.6" y="87" width="13.6" height="13.6"/>
			<rect x="114.9" y="87" width="13.6" height="13.6"/>
			<rect x="128.4" y="87" width="13.6" height="13.6"/>
			<rect x="209.6" y="73.4" width="13.6" height="13.6"/>
			<rect x="114.9" y="73.4" width="13.6" height="13.6"/>
			<rect x="114.9" y="154.5" width="13.6" height="13.6"/>
			<rect x="182.6" y="141" width="13.6" height="13.6"/>
			<rect x="196.1" y="141" width="13.6" height="13.6"/>
			<rect x="114.9" y="141" width="13.6" height="13.6"/>
			<rect x="209.6" y="127.5" width="13.6" height="13.6"/>
			<rect x="114.9" y="127.5" width="13.6" height="13.6"/>
			<rect x="209.6" y="114" width="13.6" height="13.6"/>
			<rect x="114.9" y="114" width="13.6" height="13.6"/>
		</g>
	</g>
	<rect x="100.2" y="263.4" class="st15" width="13.6" height="13.5"/>
</g>
</svg>
