<svg id="visual" viewBox="0 0 960 540" width="960" height="540"
    xmlns="http://www.w3.org/2000/svg"
    xmlns:xlink="http://www.w3.org/1999/xlink" version="1.1">
    <rect x="0" y="0" width="960" height="540" fill="#001122"></rect>
    <path d="M0 395L9.3 387C18.7 379 37.3 363 56.2 350.7C75 338.3 94 329.7 112.8 335.8C131.7 342 150.3 363 169.2 375.7C188 388.3 207 392.7 225.8 394C244.7 395.3 263.3 393.7 282.2 393.7C301 393.7 320 395.3 338.8 388.8C357.7 382.3 376.3 367.7 395.2 370.8C414 374 433 395 451.8 395.8C470.7 396.7 489.3 377.3 508.2 375.3C527 373.3 546 388.7 564.8 386C583.7 383.3 602.3 362.7 621.2 355.7C640 348.7 659 355.3 677.8 367.8C696.7 380.3 715.3 398.7 734.2 394.8C753 391 772 365 790.8 358.8C809.7 352.7 828.3 366.3 847.2 374.7C866 383 885 386 903.8 392.2C922.7 398.3 941.3 407.7 950.7 412.3L960 417L960 541L950.7 541C941.3 541 922.7 541 903.8 541C885 541 866 541 847.2 541C828.3 541 809.7 541 790.8 541C772 541 753 541 734.2 541C715.3 541 696.7 541 677.8 541C659 541 640 541 621.2 541C602.3 541 583.7 541 564.8 541C546 541 527 541 508.2 541C489.3 541 470.7 541 451.8 541C433 541 414 541 395.2 541C376.3 541 357.7 541 338.8 541C320 541 301 541 282.2 541C263.3 541 244.7 541 225.8 541C207 541 188 541 169.2 541C150.3 541 131.7 541 112.8 541C94 541 75 541 56.2 541C37.3 541 18.7 541 9.3 541L0 541Z" fill="#1cabbf"></path>
    <path d="M0 380L9.3 378C18.7 376 37.3 372 56.2 380.3C75 388.7 94 409.3 112.8 419.5C131.7 429.7 150.3 429.3 169.2 423.7C188 418 207 407 225.8 397.8C244.7 388.7 263.3 381.3 282.2 388.8C301 396.3 320 418.7 338.8 420.5C357.7 422.3 376.3 403.7 395.2 390.8C414 378 433 371 451.8 367.7C470.7 364.3 489.3 364.7 508.2 366.7C527 368.7 546 372.3 564.8 372.3C583.7 372.3 602.3 368.7 621.2 374.3C640 380 659 395 677.8 398.7C696.7 402.3 715.3 394.7 734.2 399.2C753 403.7 772 420.3 790.8 427.5C809.7 434.7 828.3 432.3 847.2 426C866 419.7 885 409.3 903.8 409.2C922.7 409 941.3 419 950.7 424L960 429L960 541L950.7 541C941.3 541 922.7 541 903.8 541C885 541 866 541 847.2 541C828.3 541 809.7 541 790.8 541C772 541 753 541 734.2 541C715.3 541 696.7 541 677.8 541C659 541 640 541 621.2 541C602.3 541 583.7 541 564.8 541C546 541 527 541 508.2 541C489.3 541 470.7 541 451.8 541C433 541 414 541 395.2 541C376.3 541 357.7 541 338.8 541C320 541 301 541 282.2 541C263.3 541 244.7 541 225.8 541C207 541 188 541 169.2 541C150.3 541 131.7 541 112.8 541C94 541 75 541 56.2 541C37.3 541 18.7 541 9.3 541L0 541Z" fill="#198c9f"></path>
    <path d="M0 448L9.3 441.8C18.7 435.7 37.3 423.3 56.2 417.3C75 411.3 94 411.7 112.8 409.7C131.7 407.7 150.3 403.3 169.2 409.2C188 415 207 431 225.8 439C244.7 447 263.3 447 282.2 439.8C301 432.7 320 418.3 338.8 415.3C357.7 412.3 376.3 420.7 395.2 426.5C414 432.3 433 435.7 451.8 436.8C470.7 438 489.3 437 508.2 431.8C527 426.7 546 417.3 564.8 413.7C583.7 410 602.3 412 621.2 410.2C640 408.3 659 402.7 677.8 410.3C696.7 418 715.3 439 734.2 443.5C753 448 772 436 790.8 425.3C809.7 414.7 828.3 405.3 847.2 407.5C866 409.7 885 423.3 903.8 431.5C922.7 439.7 941.3 442.3 950.7 443.7L960 445L960 541L950.7 541C941.3 541 922.7 541 903.8 541C885 541 866 541 847.2 541C828.3 541 809.7 541 790.8 541C772 541 753 541 734.2 541C715.3 541 696.7 541 677.8 541C659 541 640 541 621.2 541C602.3 541 583.7 541 564.8 541C546 541 527 541 508.2 541C489.3 541 470.7 541 451.8 541C433 541 414 541 395.2 541C376.3 541 357.7 541 338.8 541C320 541 301 541 282.2 541C263.3 541 244.7 541 225.8 541C207 541 188 541 169.2 541C150.3 541 131.7 541 112.8 541C94 541 75 541 56.2 541C37.3 541 18.7 541 9.3 541L0 541Z" fill="#166f7f"></path>
    <path d="M0 455L9.3 452.3C18.7 449.7 37.3 444.3 56.2 444.7C75 445 94 451 112.8 450.8C131.7 450.7 150.3 444.3 169.2 448.7C188 453 207 468 225.8 468.2C244.7 468.3 263.3 453.7 282.2 452C301 450.3 320 461.7 338.8 467C357.7 472.3 376.3 471.7 395.2 465.5C414 459.3 433 447.7 451.8 447.2C470.7 446.7 489.3 457.3 508.2 459.5C527 461.7 546 455.3 564.8 453.3C583.7 451.3 602.3 453.7 621.2 459.3C640 465 659 474 677.8 472.5C696.7 471 715.3 459 734.2 450.7C753 442.3 772 437.7 790.8 443.8C809.7 450 828.3 467 847.2 474.3C866 481.7 885 479.3 903.8 477.5C922.7 475.7 941.3 474.3 950.7 473.7L960 473L960 541L950.7 541C941.3 541 922.7 541 903.8 541C885 541 866 541 847.2 541C828.3 541 809.7 541 790.8 541C772 541 753 541 734.2 541C715.3 541 696.7 541 677.8 541C659 541 640 541 621.2 541C602.3 541 583.7 541 564.8 541C546 541 527 541 508.2 541C489.3 541 470.7 541 451.8 541C433 541 414 541 395.2 541C376.3 541 357.7 541 338.8 541C320 541 301 541 282.2 541C263.3 541 244.7 541 225.8 541C207 541 188 541 169.2 541C150.3 541 131.7 541 112.8 541C94 541 75 541 56.2 541C37.3 541 18.7 541 9.3 541L0 541Z" fill="#125360"></path>
    <path d="M0 504L9.3 499.7C18.7 495.3 37.3 486.7 56.2 482.5C75 478.3 94 478.7 112.8 483.2C131.7 487.7 150.3 496.3 169.2 498.2C188 500 207 495 225.8 496.2C244.7 497.3 263.3 504.7 282.2 502.2C301 499.7 320 487.3 338.8 487.2C357.7 487 376.3 499 395.2 504C414 509 433 507 451.8 503.8C470.7 500.7 489.3 496.3 508.2 491.5C527 486.7 546 481.3 564.8 479.5C583.7 477.7 602.3 479.3 621.2 485C640 490.7 659 500.3 677.8 505.7C696.7 511 715.3 512 734.2 508.2C753 504.3 772 495.7 790.8 493.7C809.7 491.7 828.3 496.3 847.2 500.5C866 504.7 885 508.3 903.8 507C922.7 505.7 941.3 499.3 950.7 496.2L960 493L960 541L950.7 541C941.3 541 922.7 541 903.8 541C885 541 866 541 847.2 541C828.3 541 809.7 541 790.8 541C772 541 753 541 734.2 541C715.3 541 696.7 541 677.8 541C659 541 640 541 621.2 541C602.3 541 583.7 541 564.8 541C546 541 527 541 508.2 541C489.3 541 470.7 541 451.8 541C433 541 414 541 395.2 541C376.3 541 357.7 541 338.8 541C320 541 301 541 282.2 541C263.3 541 244.7 541 225.8 541C207 541 188 541 169.2 541C150.3 541 131.7 541 112.8 541C94 541 75 541 56.2 541C37.3 541 18.7 541 9.3 541L0 541Z" fill="#0d3943"></path>
</svg>