<?xml version="1.0" encoding="utf-8"?>
<!-- Generator: Adobe Illustrator 26.2.1, SVG Export Plug-In . SVG Version: 6.00 Build 0)  -->
<svg version="1.1" id="visual" xmlns="http://www.w3.org/2000/svg" xmlns:xlink="http://www.w3.org/1999/xlink" x="0px" y="0px"
	 viewBox="0 0 960 540" style="enable-background:new 0 0 960 540;" xml:space="preserve">
<style type="text/css">
	.st0{fill:#202041;}
	.st1{fill:#32244B;}
	.st2{fill:#472753;}
	.st3{fill:#5C2958;}
	.st4{fill:#712A5A;}
	.st5{fill:#862C5A;}
	.st6{fill:#9A2F56;}
	.st7{fill:#AB344F;}
	.st8{fill:#BA3D47;}
	.st9{fill:#C6493C;}
	.st10{fill:#CE582F;}
	.st11{fill:#D2691E;}
</style>
<path class="st0" d="M0,146l80,48.4l80-32.9l80-1.8l80,21l80,9.1l80,35.6l80-27.4l80,31.9l80-68.4l80,44.7l80-7.3l80-9.1V541h-80
	h-80h-80h-80h-80h-80h-80h-80h-80h-80H80H0V146z"/>
<path class="st1" d="M0,182.5l80,48.4l80-40.1l80,14.6l80,27.4l80-17.4l80-14.6l80,52.9l80-27.4l80,27.4l80-19.2l80-45.6l80,56.5
	V541h-80h-80h-80h-80h-80h-80h-80h-80h-80h-80H80H0V182.5z"/>
<path class="st2" d="M0,259.1l80-11.8l80-20.1l80,51.1l80-11.8l80-24.6l80-15.5l80,45.6l80-57.5l80,41.9l80-31.9l80,34.7l80-50.2
	v332h-80h-80h-80h-80h-80h-80h-80h-80h-80h-80H80H0V259.1z"/>
<path class="st3" d="M0,272.8L80,250l80,35.6l80-17.4l80-10.9l80,18.3l80,15.5l80-14.6l80-12.8l80,1.8l80,10.9l80-2.8l80,1.8V541
	h-80h-80h-80h-80h-80h-80h-80h-80h-80h-80H80H0V272.8z"/>
<path class="st4" d="M0,276.4l80-4.6l80,37.4l80-20.1l80-2.8l80,46.5l80-60.2l80,21l80-6.4l80,8.2l80,12.8l80-10.9l80-25.5V541h-80
	h-80h-80h-80h-80h-80h-80h-80h-80h-80H80H0V276.4z"/>
<path class="st5" d="M0,323l80-6.4l80,4.6l80,0.9l80,34.7l80-26.4l80,27.4l80-10l80,2.8l80-24.6l80,15.5l80-17.4l80-18.3V541h-80
	h-80h-80h-80h-80h-80h-80h-80h-80h-80H80H0V323z"/>
<path class="st6" d="M0,349.4l80,0.9l80,14.6l80,19.2l80-34.7l80,11.8l80,0.9l80,9.1l80-5.5l80,16.4l80-22.8l80-9.1l80,15.5V541h-80
	h-80h-80h-80h-80h-80h-80h-80h-80h-80H80H0V349.4z"/>
<path class="st7" d="M0,404.1l80-10l80-2.8l80-4.6l80,6.4l80,10l80-36.5l80,21l80-22.8l80,16.4l80,13.7l80,5.5l80-26.4v167h-80h-80
	h-80h-80h-80h-80h-80h-80h-80h-80H80H0V404.1z"/>
<path class="st8" d="M0,408.7L80,427l80-16.4l80-10l80-4.6l80,10l80-7.3l80,1.8l80-0.9l80,32.9l80-17.4l80-18.3l80,13.7V541h-80h-80
	h-80h-80h-80h-80h-80h-80h-80h-80H80H0V408.7z"/>
<path class="st9" d="M0,446.1l80,3.7l80-13.7l80,8.2l80,4.6l80-3.7l80-14.6l80,25.5l80-15.5l80,4.6l80-15.5l80,27.4l80-3.7V541h-80
	h-80h-80h-80h-80h-80h-80h-80h-80h-80H80H0V446.1z"/>
<path class="st10" d="M0,460.7l80,9.1l80,2.8l80,7.3l80,5.5l80-10.9l80,7.3l80-15.5l80,18.3l80-24.6l80,24.6l80-17.4l80,13.7V541
	h-80h-80h-80h-80h-80h-80h-80h-80h-80h-80H80H0V460.7z"/>
<path class="st11" d="M0,507.2l80-14.6l80,2.8l80,0.9l80-1.8l80,13.7l80-17.4l80,2.8l80,9.1l80-9.1l80,12.8l80-3.7l80,6.4V541h-80
	h-80h-80h-80h-80h-80h-80h-80h-80h-80H80H0V507.2z"/>
</svg>
