<?xml version="1.0" encoding="utf-8"?>
<!-- Generator: Adobe Illustrator 26.2.1, SVG Export Plug-In . SVG Version: 6.00 Build 0)  -->
<svg version="1.1" id="Réteg_1" xmlns="http://www.w3.org/2000/svg" xmlns:xlink="http://www.w3.org/1999/xlink" x="0px" y="0px"
	 viewBox="0 0 1920 1080" style="enable-background:new 0 0 1920 1080;" xml:space="preserve">
<style type="text/css">
	.st0{fill:#4A3834;}
	.st1{fill:#584439;}
	.st2{fill:#61493D;}
	.st3{fill:#4B3834;}
	.st4{fill:#5C4841;}
	.st5{fill:#5C483D;}
	.st6{fill:#4E3B34;}
	.st7{fill:#48352D;}
	.st8{fill:#56443B;}
	.st9{fill:#422F29;}
	.st10{fill:#5B493D;}
	.st11{fill:#513F33;}
	.st12{fill:#564335;}
	.st13{fill:#5E463A;}
	.st14{fill:#513D35;}
	.st15{fill:#544133;}
	.st16{fill:#060609;}
	.st17{fill:#4C3832;}
	.st18{fill:#4F3B30;}
	.st19{fill:#503C35;}
	.st20{fill:#534133;}
	.st21{fill:#664F41;}
	.st22{fill:#59453E;}
	.st23{fill:#604D3F;}
	.st24{fill:#654D41;}
	.st25{fill:#5B4839;}
	.st26{fill:#4D3B33;}
	.st27{fill:#614A3E;}
	.st28{fill:#7E6852;}
	.st29{fill:#5D4539;}
	.st30{fill:#503C31;}
	.st31{fill:#6B5446;}
	.st32{fill:#3E2D29;}
	.st33{fill:#574436;}
	.st34{fill:#211511;}
	.st35{fill:#402D27;}
	.st36{fill:#CAC2C1;}
	.st37{fill:#58453A;}
	.st38{fill:#594135;}
	.st39{fill:#513E30;}
	.st40{fill:#644A3E;}
	.st41{fill:#412B24;}
	.st42{fill:#4D392C;}
	.st43{fill:#3E2822;}
	.st44{fill:#402824;}
	.st45{fill:#745946;}
	.st46{fill:#624B3D;}
	.st47{fill:#533E31;}
	.st48{fill:#3C1F1C;}
	.st49{fill:#50352E;}
	.st50{fill:#D2CCD0;}
	.st51{fill:#331B17;}
	.st52{fill:#371E17;}
	.st53{fill:#2E1510;}
	.st54{fill:#4F2017;}
	.st55{fill:#61332B;}
	.st56{fill:#5D3F31;}
	.st57{fill:#934F35;}
	.st58{fill:#6B3D31;}
	.st59{fill:#623F35;}
	.st60{fill:#5C4438;}
	.st61{fill:#584539;}
	.st62{fill:#5A4438;}
	.st63{fill:#634B3F;}
	.st64{fill:#634A43;}
	.st65{fill:#644C42;}
	.st66{fill:#2F1D19;}
	.st67{fill:#5C483A;}
	.st68{fill:#7D5543;}
	.st69{fill:#D5AB8F;}
	.st70{fill:#C6734D;}
	.st71{fill:#6D5344;}
	.st72{fill:#A17260;}
	.st73{fill:#A39691;}
	.st74{fill:#EBBBA5;}
	.st75{fill:#DAD7D8;}
	.st76{fill:#60483C;}
	.st77{fill:#644C40;}
	.st78{fill:#CCA9A3;}
	.st79{fill:#776478;}
	.st80{fill:#302626;}
	.st81{fill:#252C37;}
	.st82{fill:#5D4A3C;}
	.st83{fill:#D2D1D7;}
	.st84{fill:#C8C2C3;}
	.st85{fill:#907361;}
	.st86{fill:#6D5641;}
	.st87{fill:#5F473C;}
	.st88{fill:#997E61;}
	.st89{fill:#655344;}
	.st90{fill:#8D806D;}
	.st91{fill:#8F7C74;}
	.st92{fill:#DED7DF;}
	.st93{fill:#AAA2A7;}
	.st94{fill:#977763;}
	.st95{fill:#CBBFC3;}
	.st96{fill:#DAD4D5;}
	.st97{fill:#C2B9B8;}
	.st98{fill:#EDE7E9;}
	.st99{fill:#F9F9F9;}
	.st100{fill:#907664;}
	.st101{fill:#8D7057;}
	.st102{fill:#886D57;}
	.st103{fill:#B79C88;}
	.st104{fill:#D8D0C9;}
	.st105{fill:#E1DFE0;}
	.st106{fill:#D7D1D1;}
	.st107{fill:#A98974;}
	.st108{fill:#CEC2C3;}
	.st109{fill:#E7E5E1;}
	.st110{fill:#D2CDCE;}
	.st111{fill:#E8E2E2;}
	.st112{fill:#C8BEBD;}
	.st113{fill:#AEB2B5;}
	.st114{fill:#EAE9F1;}
	.st115{fill:#BEBFBE;}
	.st116{fill:#C7BEBA;}
	.st117{fill:#EBE9EA;}
	.st118{fill:#E9E3E5;}
	.st119{fill:#F5F3F4;}
	.st120{fill:#AD9799;}
	.st121{fill:#171717;}
	.st122{fill:#D7D5DE;}
	.st123{fill:#C7C6CB;}
	.st124{fill:#935D35;}
	.st125{fill:#EFEEF4;}
	.st126{fill:#EAEAEC;}
	.st127{fill:#D9D9D9;}
	.st128{fill:#E7E1E1;}
	.st129{fill:#DDD4CD;}
	.st130{fill:#372524;}
	.st131{fill:#7B6C3A;}
	.st132{fill:#743E2C;}
	.st133{fill:#6E3D19;}
	.st134{fill:#F7F6F4;}
	.st135{fill:#ECEAE9;}
	.st136{fill:#6C5241;}
	.st137{fill:#F2F2F4;}
	.st138{fill:#DFDFDF;}
	.st139{fill:#F5F5F7;}
	.st140{fill:#E3D9D8;}
	.st141{fill:#E3E1E2;}
	.st142{fill:#E5E4E2;}
	.st143{fill:#904D39;}
	.st144{fill:#7F3431;}
	.st145{fill:#F6F0F0;}
	.st146{fill:#BF6D56;}
	.st147{fill:#EFEAEE;}
	.st148{fill:#F2F1EF;}
	.st149{fill:#F1F1F1;}
	.st150{fill:#F2F2F2;}
	.st151{fill:#F0EEEF;}
	.st152{fill:#EBE6EC;}
	.st153{fill:#ECEAEB;}
	.st154{fill:#E1DBDF;}
	.st155{fill:#D6D6D4;}
	.st156{fill:#DCD7D4;}
	.st157{fill:#DDD9D0;}
	.st158{fill:#D0C9CB;}
	.st159{fill:#F3F1F2;}
	.st160{fill:#F1EFF0;}
	.st161{fill:#E7E1E4;}
	.st162{fill:#EAE4E8;}
	.st163{fill:#E7E1E3;}
	.st164{fill:#CBC5C8;}
	.st165{fill:#C4B5B8;}
	.st166{fill:#C4BABB;}
	.st167{fill:#CDC4C7;}
	.st168{fill:#D7D1D6;}
	.st169{fill:#E7E7E9;}
	.st170{fill:#F4F2F5;}
	.st171{fill:#E4DEE0;}
	.st172{fill:#E2E1E7;}
	.st173{fill:#D2BFC5;}
	.st174{fill:#E0DADC;}
	.st175{fill:#DFD6D9;}
	.st176{fill:#89000F;}
	.st177{fill:#CC8582;}
	.st178{fill:#F1EFF2;}
	.st179{fill:#E4B7C0;}
	.st180{fill:#D93A33;}
	.st181{fill:#E47D86;}
	.st182{fill:#F0CBD0;}
	.st183{fill:#ECAEB3;}
</style>
<g>
	<polygon class="st0" points="1917.8,1046.6 1920.9,1079.9 1880.3,1062.8 	"/>
	<polygon class="st0" points="1920.9,1079.9 1853.6,1079.5 1880.3,1062.8 	"/>
	<polygon class="st0" points="1913.6,1010.2 1917.8,1046.6 1896.5,1027.2 	"/>
	<polygon class="st0" points="1917.8,1046.6 1880.3,1062.8 1896.5,1027.2 	"/>
	<polygon class="st0" points="1903.5,969.2 1913.6,1010.2 1874.9,997 	"/>
	<polygon class="st0" points="1913.6,1010.2 1896.5,1027.2 1874.9,997 	"/>
	<polygon class="st0" points="1897.3,931.2 1903.5,969.2 1866.7,961.8 	"/>
	<polygon class="st0" points="1903.5,969.2 1874.9,997 1866.7,961.8 	"/>
	<polygon class="st0" points="1894.2,894.8 1897.3,931.2 1865.2,891 	"/>
	<polygon class="st0" points="1865.2,891 1897.3,931.2 1852.4,930.1 	"/>
	<polygon class="st0" points="1897.3,931.2 1866.7,961.8 1852.4,930.1 	"/>
	<polygon class="st1" points="1874.9,997 1896.5,1027.2 1856.7,1017.9 	"/>
	<polygon class="st1" points="1896.5,1027.2 1880.3,1062.8 1856.7,1017.9 	"/>
	<polygon class="st0" points="1884.9,853.4 1894.2,894.8 1865.2,891 	"/>
	<polygon class="st0" points="1872.2,815.5 1884.9,853.4 1853.6,843.8 	"/>
	<polygon class="st0" points="1884.9,853.4 1865.2,891 1853.6,843.8 	"/>
	<polygon class="st1" points="1856.7,1017.9 1880.3,1062.8 1831.1,1059 	"/>
	<polygon class="st2" points="1880.3,1062.8 1853.6,1079.5 1831.1,1059 	"/>
	<polygon class="st1" points="1866.7,961.8 1874.9,997 1835,978.5 	"/>
	<polygon class="st1" points="1874.9,997 1856.7,1017.9 1835,978.5 	"/>
	<polygon class="st0" points="1857.8,775.2 1872.2,815.5 1833.1,802.3 	"/>
	<polygon class="st3" points="1872.2,815.5 1853.6,843.8 1833.1,802.3 	"/>
	<polygon class="st1" points="1852.4,930.1 1866.7,961.8 1837.7,947.5 	"/>
	<polygon class="st4" points="1866.7,961.8 1835,978.5 1837.7,947.5 	"/>
	<polygon class="st1" points="1853.6,843.8 1865.2,891 1839.2,870.5 	"/>
	<polygon class="st1" points="1865.2,891 1852.4,930.1 1807.5,901.9 	"/>
	<polygon class="st1" points="1865.2,891 1807.5,901.9 1839.2,870.5 	"/>
	<polygon class="st0" points="1839.6,738.5 1857.8,775.2 1817.2,775.6 	"/>
	<polygon class="st0" points="1857.8,775.2 1833.1,802.3 1817.2,775.6 	"/>
	<polygon class="st5" points="1835,978.5 1856.7,1017.9 1804.8,991.6 	"/>
	<polygon class="st5" points="1856.7,1017.9 1831.1,1059 1790.1,1006.7 	"/>
	<polygon class="st5" points="1856.7,1017.9 1790.1,1006.7 1804.8,991.6 	"/>
	<polygon class="st3" points="1833.1,802.3 1853.6,843.8 1805.7,817 	"/>
	<polygon class="st1" points="1853.6,843.8 1839.2,870.5 1810.3,857.8 	"/>
	<polygon class="st1" points="1853.6,843.8 1810.3,857.8 1805.7,817 	"/>
	<polygon class="st2" points="1853.6,1079.5 1807.9,1079.5 1831.1,1059 	"/>
	<polygon class="st6" points="1852.4,930.1 1837.7,947.5 1813.3,940.9 	"/>
	<polygon class="st1" points="1852.4,930.1 1813.3,940.9 1807.5,901.9 	"/>
	<polygon class="st7" points="1822.7,707.9 1839.6,738.5 1807.9,730.3 	"/>
	<polygon class="st8" points="1839.6,738.5 1817.2,775.6 1807.9,730.3 	"/>
	<polygon class="st9" points="1839.2,870.5 1807.5,901.9 1771.6,884.7 	"/>
	<polygon class="st9" points="1839.2,870.5 1771.6,884.7 1810.3,857.8 	"/>
	<polygon class="st6" points="1837.7,947.5 1835,978.5 1803.6,967.6 	"/>
	<polygon class="st6" points="1837.7,947.5 1803.6,967.6 1813.3,940.9 	"/>
	<polygon class="st5" points="1835,978.5 1804.8,991.6 1803.6,967.6 	"/>
	<polygon class="st3" points="1817.2,775.6 1833.1,802.3 1805.7,817 	"/>
	<polygon class="st10" points="1790.1,1006.7 1831.1,1059 1792,1047 	"/>
	<polygon class="st2" points="1831.1,1059 1807.9,1079.5 1792,1047 	"/>
	<polygon class="st7" points="1822.7,707.9 1807.9,730.3 1784.8,704 	"/>
	<polygon class="st7" points="1822.7,707.9 1784.8,704 1783,685.4 	"/>
	<polygon class="st8" points="1807.9,730.3 1817.2,775.6 1779.9,754.6 	"/>
	<polygon class="st3" points="1817.2,775.6 1805.7,817 1781.2,805.9 	"/>
	<polygon class="st11" points="1817.2,775.6 1781.2,805.9 1779.9,754.6 	"/>
	<polygon class="st6" points="1807.5,901.9 1813.3,940.9 1779.6,930.8 	"/>
	<polygon class="st6" points="1813.3,940.9 1803.6,967.6 1786.2,959.5 	"/>
	<polygon class="st6" points="1813.3,940.9 1786.2,959.5 1779.6,930.8 	"/>
	<polygon class="st9" points="1805.7,817 1810.3,857.8 1775.8,849 	"/>
	<polygon class="st9" points="1810.3,857.8 1771.6,884.7 1775.8,849 	"/>
	<polygon class="st7" points="1784.8,704 1807.9,730.3 1778.1,723.9 	"/>
	<polygon class="st2" points="1792,1047 1807.9,1079.5 1774.2,1079.9 	"/>
	<polygon class="st8" points="1807.9,730.3 1779.9,754.6 1778.1,723.9 	"/>
	<polygon class="st9" points="1807.5,901.9 1779.6,930.8 1771.6,884.7 	"/>
	<polygon class="st3" points="1805.7,817 1775.8,849 1781.2,805.9 	"/>
	<polygon class="st5" points="1803.6,967.6 1804.8,991.6 1759.1,980.8 	"/>
	<polygon class="st5" points="1804.8,991.6 1790.1,1006.7 1759.1,980.8 	"/>
	<polygon class="st12" points="1803.6,967.6 1759.1,980.8 1786.2,959.5 	"/>
	<polygon class="st10" points="1790.1,1006.7 1792,1047 1761.8,1008.7 	"/>
	<polygon class="st10" points="1761.8,1008.7 1792,1047 1765.3,1062.1 	"/>
	<polygon class="st2" points="1792,1047 1774.2,1079.9 1765.3,1062.1 	"/>
	<polygon class="st13" points="1790.1,1006.7 1761.8,1008.7 1759.1,980.8 	"/>
	<polygon class="st14" points="1779.6,930.8 1786.2,959.5 1737.8,916.5 	"/>
	<polygon class="st15" points="1786.2,959.5 1759.1,980.8 1746,945.9 	"/>
	<polygon class="st15" points="1786.2,959.5 1746,945.9 1737.8,916.5 	"/>
	<polygon class="st16" points="1783,685.4 1784.8,704 1766.7,703.8 	"/>
	<polygon class="st7" points="1784.8,704 1778.1,723.9 1766.7,703.8 	"/>
	<polygon class="st16" points="1783,685.4 1766.7,703.8 1751.4,654.1 	"/>
	<polygon class="st11" points="1779.9,754.6 1781.2,805.9 1748.4,778.1 	"/>
	<polygon class="st17" points="1781.2,805.9 1775.8,849 1753.8,835.9 	"/>
	<polygon class="st11" points="1781.2,805.9 1753.8,835.9 1716.2,818.8 	"/>
	<polygon class="st11" points="1781.2,805.9 1716.2,818.8 1748.4,778.1 	"/>
	<polygon class="st8" points="1778.1,723.9 1779.9,754.6 1743.8,716.7 	"/>
	<polygon class="st8" points="1743.8,716.7 1779.9,754.6 1748.4,778.1 	"/>
	<polygon class="st9" points="1771.6,884.7 1779.6,930.8 1737.8,916.5 	"/>
	<polygon class="st7" points="1766.7,703.8 1778.1,723.9 1743.8,716.7 	"/>
	<polygon class="st18" points="1775.8,849 1771.6,884.7 1736.5,868.1 	"/>
	<polygon class="st18" points="1775.8,849 1736.5,868.1 1753.8,835.9 	"/>
	<polygon class="st2" points="1765.3,1062.1 1774.2,1079.9 1740.2,1079.9 	"/>
	<polygon class="st18" points="1771.6,884.7 1737.8,916.5 1710,892.9 	"/>
	<polygon class="st18" points="1771.6,884.7 1710,892.9 1736.5,868.1 	"/>
	<polygon class="st16" points="1751.4,654.1 1766.7,703.8 1738.1,682.1 	"/>
	<polygon class="st7" points="1766.7,703.8 1743.8,716.7 1738.1,682.1 	"/>
	<polygon class="st10" points="1761.8,1008.7 1765.3,1062.1 1720.8,1019.9 	"/>
	<polygon class="st2" points="1765.3,1062.1 1740.2,1079.9 1721,1061.5 	"/>
	<polygon class="st10" points="1765.3,1062.1 1721,1061.5 1720.8,1019.9 	"/>
	<polygon class="st13" points="1759.1,980.8 1761.8,1008.7 1728.5,990.8 	"/>
	<polygon class="st10" points="1761.8,1008.7 1720.8,1019.9 1728.5,990.8 	"/>
	<polygon class="st15" points="1746,945.9 1759.1,980.8 1708.8,964.9 	"/>
	<polygon class="st13" points="1759.1,980.8 1728.5,990.8 1708.8,964.9 	"/>
	<polygon class="st19" points="1753.8,835.9 1736.5,868.1 1716.2,818.8 	"/>
	<polygon class="st16" points="1728.5,616.5 1751.4,654.1 1705.7,632 	"/>
	<polygon class="st16" points="1751.4,654.1 1738.1,682.1 1707.2,662.2 	"/>
	<polygon class="st16" points="1751.4,654.1 1707.2,662.2 1705.7,632 	"/>
	<polygon class="st8" points="1743.8,716.7 1748.4,778.1 1719.8,735.8 	"/>
	<polygon class="st20" points="1719.8,735.8 1748.4,778.1 1706.3,783 	"/>
	<polygon class="st11" points="1748.4,778.1 1716.2,818.8 1706.3,783 	"/>
	<polygon class="st15" points="1737.8,916.5 1746,945.9 1708.8,964.9 	"/>
	<polygon class="st7" points="1738.1,682.1 1743.8,716.7 1712.8,697.3 	"/>
	<polygon class="st8" points="1743.8,716.7 1719.8,735.8 1712.8,697.3 	"/>
	<polygon class="st21" points="1740.2,1079.9 1703.4,1079.9 1721,1061.5 	"/>
	<polygon class="st7" points="1738.1,682.1 1712.8,697.3 1707.2,662.2 	"/>
	<polygon class="st15" points="1737.8,916.5 1708.8,964.9 1701.4,926.2 	"/>
	<polygon class="st15" points="1737.8,916.5 1701.4,926.2 1710,892.9 	"/>
	<polygon class="st19" points="1716.2,818.8 1736.5,868.1 1686,849.6 	"/>
	<polygon class="st13" points="1736.5,868.1 1710,892.9 1667.4,871.8 	"/>
	<polygon class="st19" points="1736.5,868.1 1667.4,871.8 1686,849.6 	"/>
	<polygon class="st16" points="1712.3,575.1 1728.5,616.5 1692.9,598.3 	"/>
	<polygon class="st15" points="1708.8,964.9 1728.5,990.8 1682.3,980.1 	"/>
	<polygon class="st10" points="1728.5,990.8 1720.8,1019.9 1659.6,1019.4 	"/>
	<polygon class="st16" points="1728.5,616.5 1705.7,632 1692.9,598.3 	"/>
	<polygon class="st10" points="1728.5,990.8 1659.6,1019.4 1682.3,980.1 	"/>
	<polygon class="st10" points="1720.8,1019.9 1721,1061.5 1696,1041.9 	"/>
	<polygon class="st21" points="1721,1061.5 1703.4,1079.9 1675.5,1066.5 	"/>
	<polygon class="st21" points="1721,1061.5 1675.5,1066.5 1696,1041.9 	"/>
	<polygon class="st10" points="1720.8,1019.9 1696,1041.9 1659.6,1019.4 	"/>
	<polygon class="st8" points="1712.8,697.3 1719.8,735.8 1688,711.8 	"/>
	<polygon class="st22" points="1719.8,735.8 1706.3,783 1647.2,761.3 	"/>
	<polygon class="st22" points="1719.8,735.8 1647.2,761.3 1676.7,730.3 	"/>
	<polygon class="st22" points="1719.8,735.8 1676.7,730.3 1688,711.8 	"/>
	<polygon class="st23" points="1706.3,783 1716.2,818.8 1687.5,796.4 	"/>
	<polygon class="st24" points="1716.2,818.8 1686,849.6 1687.5,796.4 	"/>
	<polygon class="st7" points="1707.2,662.2 1712.8,697.3 1681.3,673.4 	"/>
	<polygon class="st8" points="1712.8,697.3 1688,711.8 1681.3,673.4 	"/>
	<polygon class="st16" points="1694.5,532.1 1712.3,575.1 1673.2,567.8 	"/>
	<polygon class="st16" points="1712.3,575.1 1692.9,598.3 1673.2,567.8 	"/>
	<polygon class="st15" points="1710,892.9 1701.4,926.2 1657.1,911.5 	"/>
	<polygon class="st15" points="1710,892.9 1657.1,911.5 1667.4,871.8 	"/>
	<polygon class="st25" points="1701.4,926.2 1708.8,964.9 1671,946.3 	"/>
	<polygon class="st15" points="1708.8,964.9 1682.3,980.1 1671,946.3 	"/>
	<polygon class="st16" points="1705.7,632 1707.2,662.2 1682.1,629.7 	"/>
	<polygon class="st16" points="1682.1,629.7 1707.2,662.2 1668.5,649.8 	"/>
	<polygon class="st7" points="1707.2,662.2 1681.3,673.4 1668.5,649.8 	"/>
	<polygon class="st23" points="1706.3,783 1687.5,796.4 1647.2,761.3 	"/>
	<polygon class="st16" points="1692.9,598.3 1705.7,632 1682.1,629.7 	"/>
	<polygon class="st21" points="1703.4,1079.9 1670.9,1079.9 1675.5,1066.5 	"/>
	<polygon class="st25" points="1701.4,926.2 1671,946.3 1657.1,911.5 	"/>
	<polygon class="st21" points="1696,1041.9 1675.5,1066.5 1659.6,1019.4 	"/>
	<polygon class="st16" points="1670.9,495 1694.5,532.1 1660,523.6 	"/>
	<polygon class="st16" points="1694.5,532.1 1673.2,567.8 1660,523.6 	"/>
	<polygon class="st16" points="1673.2,567.8 1692.9,598.3 1664.7,601.4 	"/>
	<polygon class="st16" points="1692.9,598.3 1682.1,629.7 1664.7,601.4 	"/>
	<polygon class="st8" points="1681.3,673.4 1688,711.8 1645.7,676.9 	"/>
	<polygon class="st22" points="1688,711.8 1676.7,730.3 1640.5,724.1 	"/>
	<polygon class="st22" points="1688,711.8 1640.5,724.1 1645.7,676.9 	"/>
	<polygon class="st24" points="1687.5,796.4 1686,849.6 1613.7,829.4 	"/>
	<polygon class="st23" points="1687.5,796.4 1613.7,829.4 1623,789.7 	"/>
	<polygon class="st23" points="1687.5,796.4 1623,789.7 1647.2,761.3 	"/>
	<polygon class="st24" points="1686,849.6 1667.4,871.8 1613.7,829.4 	"/>
	<polygon class="st15" points="1671,946.3 1682.3,980.1 1655.2,986.6 	"/>
	<polygon class="st13" points="1682.3,980.1 1659.6,1019.4 1655.2,986.6 	"/>
	<polygon class="st16" points="1664.7,601.4 1682.1,629.7 1650.3,623.1 	"/>
	<polygon class="st26" points="1682.1,629.7 1668.5,649.8 1650.3,623.1 	"/>
	<polygon class="st7" points="1668.5,649.8 1681.3,673.4 1645.7,676.9 	"/>
	<polygon class="st27" points="1676.7,730.3 1647.2,761.3 1640.5,724.1 	"/>
	<polygon class="st21" points="1659.6,1019.4 1675.5,1066.5 1640.7,1054.3 	"/>
	<polygon class="st21" points="1675.5,1066.5 1670.9,1079.9 1640.7,1054.3 	"/>
	<polygon class="st16" points="1660,523.6 1673.2,567.8 1622.5,551.9 	"/>
	<polygon class="st16" points="1673.2,567.8 1664.7,601.4 1626.7,587.9 	"/>
	<polygon class="st16" points="1673.2,567.8 1626.7,587.9 1622.5,551.9 	"/>
	<polygon class="st13" points="1657.1,911.5 1671,946.3 1646.2,936.3 	"/>
	<polygon class="st13" points="1671,946.3 1655.2,986.6 1644.9,954.1 	"/>
	<polygon class="st13" points="1671,946.3 1644.9,954.1 1646.2,936.3 	"/>
	<polygon class="st16" points="1670.9,495 1660,523.6 1631,500.4 	"/>
	<polygon class="st16" points="1670.9,495 1631,500.4 1639.1,463.2 	"/>
	<polygon class="st28" points="1670.9,1079.9 1622.1,1079.5 1640.7,1054.3 	"/>
	<polygon class="st26" points="1650.3,623.1 1668.5,649.8 1631,642.1 	"/>
	<polygon class="st7" points="1668.5,649.8 1645.7,676.9 1631,642.1 	"/>
	<polygon class="st15" points="1667.4,871.8 1657.1,911.5 1628.2,886.7 	"/>
	<polygon class="st24" points="1667.4,871.8 1628.2,886.7 1613.7,829.4 	"/>
	<polygon class="st16" points="1664.7,601.4 1650.3,623.1 1626.7,587.9 	"/>
	<polygon class="st16" points="1660,523.6 1622.5,551.9 1631,500.4 	"/>
	<polygon class="st21" points="1655.2,986.6 1659.6,1019.4 1630.7,1019.9 	"/>
	<polygon class="st21" points="1659.6,1019.4 1640.7,1054.3 1630.7,1019.9 	"/>
	<polygon class="st21" points="1657.1,911.5 1646.2,936.3 1604.4,922.8 	"/>
	<polygon class="st21" points="1657.1,911.5 1604.4,922.8 1628.2,886.7 	"/>
	<polygon class="st21" points="1644.9,954.1 1655.2,986.6 1630.7,984.3 	"/>
	<polygon class="st21" points="1655.2,986.6 1630.7,1019.9 1630.7,984.3 	"/>
	<polygon class="st16" points="1626.7,587.9 1650.3,623.1 1618.6,618.8 	"/>
	<polygon class="st26" points="1650.3,623.1 1631,642.1 1618.6,618.8 	"/>
	<polygon class="st27" points="1640.5,724.1 1647.2,761.3 1589.4,757.7 	"/>
	<polygon class="st13" points="1647.2,761.3 1623,789.7 1589.4,757.7 	"/>
	<polygon class="st21" points="1646.2,936.3 1644.9,954.1 1609.1,949.9 	"/>
	<polygon class="st21" points="1646.2,936.3 1609.1,949.9 1604.4,922.8 	"/>
	<polygon class="st7" points="1631,642.1 1645.7,676.9 1627.4,675.9 	"/>
	<polygon class="st22" points="1645.7,676.9 1640.5,724.1 1623.5,698.1 	"/>
	<polygon class="st22" points="1645.7,676.9 1623.5,698.1 1627.4,675.9 	"/>
	<polygon class="st21" points="1644.9,954.1 1630.7,984.3 1602.3,977.6 	"/>
	<polygon class="st21" points="1644.9,954.1 1602.3,977.6 1609.1,949.9 	"/>
	<polygon class="st28" points="1630.7,1019.9 1640.7,1054.3 1604.2,1040.3 	"/>
	<polygon class="st28" points="1640.7,1054.3 1622.1,1079.5 1604.2,1040.3 	"/>
	<polygon class="st29" points="1623.5,698.1 1640.5,724.1 1605.4,727.5 	"/>
	<polygon class="st29" points="1640.5,724.1 1589.4,757.7 1605.4,727.5 	"/>
	<polygon class="st16" points="1639.1,463.2 1631,500.4 1612,475.2 	"/>
	<polygon class="st16" points="1639.1,463.2 1612,475.2 1613.6,442.3 	"/>
	<polygon class="st16" points="1612,475.2 1631,500.4 1599.1,513.2 	"/>
	<polygon class="st16" points="1631,500.4 1622.5,551.9 1599.1,513.2 	"/>
	<polygon class="st26" points="1618.6,618.8 1631,642.1 1591.5,641.8 	"/>
	<polygon class="st30" points="1631,642.1 1627.4,675.9 1591.5,641.8 	"/>
	<polygon class="st28" points="1630.7,984.3 1630.7,1019.9 1611.4,1002.8 	"/>
	<polygon class="st28" points="1630.7,984.3 1611.4,1002.8 1602.3,977.6 	"/>
	<polygon class="st28" points="1630.7,1019.9 1604.2,1040.3 1611.4,1002.8 	"/>
	<polygon class="st31" points="1613.7,829.4 1628.2,886.7 1598.7,861.4 	"/>
	<polygon class="st21" points="1628.2,886.7 1604.4,922.8 1590,892.9 	"/>
	<polygon class="st31" points="1628.2,886.7 1590,892.9 1598.7,861.4 	"/>
	<polygon class="st22" points="1627.4,675.9 1623.5,698.1 1595.1,674.8 	"/>
	<polygon class="st30" points="1627.4,675.9 1595.1,674.8 1591.5,641.8 	"/>
	<polygon class="st32" points="1622.5,551.9 1626.7,587.9 1599.2,578.2 	"/>
	<polygon class="st33" points="1626.7,587.9 1618.6,618.8 1604.7,599.5 	"/>
	<polygon class="st33" points="1626.7,587.9 1604.7,599.5 1599.2,578.2 	"/>
	<polygon class="st29" points="1623.5,698.1 1605.4,727.5 1589.4,698.6 	"/>
	<polygon class="st22" points="1623.5,698.1 1589.4,698.6 1595.1,674.8 	"/>
	<polygon class="st13" points="1623,789.7 1613.7,829.4 1594.6,788.7 	"/>
	<polygon class="st13" points="1623,789.7 1594.6,788.7 1589.4,757.7 	"/>
	<polygon class="st34" points="1599.1,513.2 1622.5,551.9 1590,545.7 	"/>
	<polygon class="st35" points="1622.5,551.9 1599.2,578.2 1590,545.7 	"/>
	<polygon class="st36" points="1604.2,1040.3 1622.1,1079.5 1579.9,1062.8 	"/>
	<polygon class="st36" points="1622.1,1079.5 1588,1079.5 1579.9,1062.8 	"/>
	<polygon class="st37" points="1604.7,599.5 1618.6,618.8 1569.3,601 	"/>
	<polygon class="st38" points="1618.6,618.8 1591.5,641.8 1559.8,629.4 	"/>
	<polygon class="st39" points="1618.6,618.8 1559.8,629.4 1569.3,601 	"/>
	<polygon class="st23" points="1594.6,788.7 1613.7,829.4 1587.4,814.2 	"/>
	<polygon class="st31" points="1613.7,829.4 1598.7,861.4 1587.4,814.2 	"/>
	<polygon class="st16" points="1583,406.7 1613.6,442.3 1583,444.8 	"/>
	<polygon class="st16" points="1613.6,442.3 1612,475.2 1576,477.6 	"/>
	<polygon class="st16" points="1613.6,442.3 1576,477.6 1583,444.8 	"/>
	<polygon class="st16" points="1612,475.2 1599.1,513.2 1576.6,496.5 	"/>
	<polygon class="st16" points="1612,475.2 1576.6,496.5 1576,477.6 	"/>
	<polygon class="st28" points="1602.3,977.6 1611.4,1002.8 1582.5,1008.5 	"/>
	<polygon class="st28" points="1611.4,1002.8 1604.2,1040.3 1582.5,1008.5 	"/>
	<polygon class="st28" points="1604.4,922.8 1609.1,949.9 1577.6,962.6 	"/>
	<polygon class="st28" points="1609.1,949.9 1602.3,977.6 1577.6,962.6 	"/>
	<polygon class="st29" points="1589.4,698.6 1605.4,727.5 1559,731.9 	"/>
	<polygon class="st29" points="1605.4,727.5 1589.4,757.7 1559,731.9 	"/>
	<polygon class="st40" points="1599.2,578.2 1604.7,599.5 1569.3,601 	"/>
	<polygon class="st28" points="1590,892.9 1604.4,922.8 1558,898.1 	"/>
	<polygon class="st28" points="1604.4,922.8 1577.6,962.6 1547.8,942.1 	"/>
	<polygon class="st28" points="1604.4,922.8 1547.8,942.1 1558,898.1 	"/>
	<polygon class="st36" points="1582.5,1008.5 1604.2,1040.3 1562.1,1030.3 	"/>
	<polygon class="st36" points="1604.2,1040.3 1579.9,1062.8 1562.1,1030.3 	"/>
	<polygon class="st28" points="1602.3,977.6 1582.5,1008.5 1577.6,962.6 	"/>
	<polygon class="st41" points="1590,545.7 1599.2,578.2 1564.4,572.8 	"/>
	<polygon class="st42" points="1599.2,578.2 1569.3,601 1564.4,572.8 	"/>
	<polygon class="st43" points="1599.1,513.2 1590,545.7 1573.5,525.9 	"/>
	<polygon class="st44" points="1599.1,513.2 1573.5,525.9 1576.6,496.5 	"/>
	<polygon class="st45" points="1587.4,814.2 1598.7,861.4 1554.9,866.4 	"/>
	<polygon class="st31" points="1598.7,861.4 1590,892.9 1554.9,866.4 	"/>
	<polygon class="st30" points="1591.5,641.8 1595.1,674.8 1565.4,649 	"/>
	<polygon class="st22" points="1595.1,674.8 1589.4,698.6 1565.4,682.1 	"/>
	<polygon class="st33" points="1595.1,674.8 1565.4,682.1 1565.4,649 	"/>
	<polygon class="st46" points="1589.4,757.7 1594.6,788.7 1548.2,775.2 	"/>
	<polygon class="st46" points="1594.6,788.7 1587.4,814.2 1507.9,794.8 	"/>
	<polygon class="st46" points="1594.6,788.7 1507.9,794.8 1548.2,775.2 	"/>
	<polygon class="st47" points="1591.5,641.8 1565.4,649 1559.8,629.4 	"/>
	<polygon class="st48" points="1573.5,525.9 1590,545.7 1540.6,544.1 	"/>
	<polygon class="st49" points="1590,545.7 1564.4,572.8 1540.6,544.1 	"/>
	<polygon class="st28" points="1590,892.9 1558,898.1 1554.9,866.4 	"/>
	<polygon class="st2" points="1589.4,698.6 1559,731.9 1565.4,682.1 	"/>
	<polygon class="st46" points="1589.4,757.7 1548.2,775.2 1559,731.9 	"/>
	<polygon class="st50" points="1579.9,1062.8 1588,1079.5 1537.7,1079.5 	"/>
	<polygon class="st45" points="1587.4,814.2 1554.9,866.4 1527,836.1 	"/>
	<polygon class="st45" points="1587.4,814.2 1527,836.1 1512,826.8 	"/>
	<polygon class="st45" points="1587.4,814.2 1512,826.8 1507.9,794.8 	"/>
	<polygon class="st51" points="1583,406.7 1583,444.8 1557.8,419.7 	"/>
	<polygon class="st16" points="1563.1,372.5 1583,406.7 1530,392.4 	"/>
	<polygon class="st52" points="1583,444.8 1576,477.6 1556.5,455.5 	"/>
	<polygon class="st53" points="1583,406.7 1557.8,419.7 1530,392.4 	"/>
	<polygon class="st52" points="1583,444.8 1556.5,455.5 1557.8,419.7 	"/>
	<polygon class="st28" points="1577.6,962.6 1582.5,1008.5 1559.5,988.1 	"/>
	<polygon class="st36" points="1582.5,1008.5 1562.1,1030.3 1559.5,988.1 	"/>
	<polygon class="st36" points="1562.1,1030.3 1579.9,1062.8 1546.2,1051.2 	"/>
	<polygon class="st50" points="1579.9,1062.8 1537.7,1079.5 1546.2,1051.2 	"/>
	<polygon class="st28" points="1577.6,962.6 1559.5,988.1 1547.8,942.1 	"/>
	<polygon class="st54" points="1576,477.6 1576.6,496.5 1556.5,493.2 	"/>
	<polygon class="st55" points="1576.6,496.5 1573.5,525.9 1556.5,493.2 	"/>
	<polygon class="st56" points="1556.5,455.5 1576,477.6 1539.2,474.3 	"/>
	<polygon class="st57" points="1576,477.6 1556.5,493.2 1539.2,474.3 	"/>
	<polygon class="st58" points="1556.5,493.2 1573.5,525.9 1533.1,503.1 	"/>
	<polygon class="st59" points="1573.5,525.9 1540.6,544.1 1533.1,503.1 	"/>
	<polygon class="st60" points="1564.4,572.8 1569.3,601 1534.2,600.3 	"/>
	<polygon class="st61" points="1569.3,601 1559.8,629.4 1536,626.6 	"/>
	<polygon class="st62" points="1569.3,601 1536,626.6 1534.2,600.3 	"/>
	<polygon class="st30" points="1565.4,649 1565.4,682.1 1542.7,655.5 	"/>
	<polygon class="st30" points="1559.8,629.4 1565.4,649 1542.7,655.5 	"/>
	<polygon class="st24" points="1542.7,655.5 1565.4,682.1 1518.5,693.4 	"/>
	<polygon class="st63" points="1565.4,682.1 1559,731.9 1547.6,706.1 	"/>
	<polygon class="st63" points="1565.4,682.1 1547.6,706.1 1518.5,693.4 	"/>
	<polygon class="st64" points="1540.6,544.1 1564.4,572.8 1523.4,563.9 	"/>
	<polygon class="st65" points="1564.4,572.8 1534.2,600.3 1523.4,563.9 	"/>
	<polygon class="st66" points="1542.9,342.7 1563.1,372.5 1523.6,363.6 	"/>
	<polygon class="st66" points="1563.1,372.5 1530,392.4 1523.6,363.6 	"/>
	<polygon class="st36" points="1559.5,988.1 1562.1,1030.3 1532.3,981.2 	"/>
	<polygon class="st36" points="1532.3,981.2 1562.1,1030.3 1522.6,1015.6 	"/>
	<polygon class="st36" points="1562.1,1030.3 1546.2,1051.2 1522.6,1015.6 	"/>
	<polygon class="st67" points="1559.8,629.4 1542.7,655.5 1536,626.6 	"/>
	<polygon class="st36" points="1547.8,942.1 1559.5,988.1 1532.3,981.2 	"/>
	<polygon class="st46" points="1547.6,706.1 1559,731.9 1525.4,745 	"/>
	<polygon class="st46" points="1559,731.9 1548.2,775.2 1525.4,745 	"/>
	<polygon class="st28" points="1554.9,866.4 1558,898.1 1515.1,887.8 	"/>
	<polygon class="st28" points="1558,898.1 1547.8,942.1 1527.2,910.3 	"/>
	<polygon class="st28" points="1558,898.1 1527.2,910.3 1515.1,887.8 	"/>
	<polygon class="st56" points="1557.8,419.7 1556.5,455.5 1532.7,426.1 	"/>
	<polygon class="st68" points="1557.8,419.7 1532.7,426.1 1530,392.4 	"/>
	<polygon class="st69" points="1532.7,426.1 1556.5,455.5 1526.5,455.9 	"/>
	<polygon class="st69" points="1556.5,455.5 1539.2,474.3 1526.5,455.9 	"/>
	<polygon class="st70" points="1539.2,474.3 1556.5,493.2 1533.1,503.1 	"/>
	<polygon class="st28" points="1527,836.1 1554.9,866.4 1492.2,858.8 	"/>
	<polygon class="st28" points="1554.9,866.4 1515.1,887.8 1492.2,858.8 	"/>
	<polygon class="st45" points="1525.4,745 1548.2,775.2 1497.6,763.4 	"/>
	<polygon class="st45" points="1548.2,775.2 1507.9,794.8 1497.6,763.4 	"/>
	<polygon class="st36" points="1527.2,910.3 1547.8,942.1 1507.1,941.7 	"/>
	<polygon class="st36" points="1547.8,942.1 1532.3,981.2 1507.1,941.7 	"/>
	<polygon class="st71" points="1547.6,706.1 1525.4,745 1516.9,718.7 	"/>
	<polygon class="st63" points="1547.6,706.1 1516.9,718.7 1518.5,693.4 	"/>
	<polygon class="st50" points="1522.6,1015.6 1546.2,1051.2 1530.3,1053.8 	"/>
	<polygon class="st50" points="1546.2,1051.2 1537.7,1079.5 1530.3,1053.8 	"/>
	<polygon class="st66" points="1528.4,325.6 1542.9,342.7 1508.3,335.7 	"/>
	<polygon class="st66" points="1542.9,342.7 1523.6,363.6 1508.3,335.7 	"/>
	<polygon class="st67" points="1536,626.6 1542.7,655.5 1526.2,650.3 	"/>
	<polygon class="st67" points="1542.7,655.5 1518.5,693.4 1526.2,650.3 	"/>
	<polygon class="st72" points="1533.1,503.1 1540.6,544.1 1508.3,536.4 	"/>
	<polygon class="st73" points="1540.6,544.1 1523.4,563.9 1508.3,536.4 	"/>
	<polygon class="st69" points="1526.5,455.9 1539.2,474.3 1505.6,473.7 	"/>
	<polygon class="st70" points="1539.2,474.3 1533.1,503.1 1507.5,500.8 	"/>
	<polygon class="st74" points="1539.2,474.3 1507.5,500.8 1505.6,473.7 	"/>
	<polygon class="st75" points="1530.3,1053.8 1537.7,1079.5 1512.5,1079.5 	"/>
	<polygon class="st76" points="1534.2,600.3 1536,626.6 1491.9,642.1 	"/>
	<polygon class="st23" points="1536,626.6 1526.2,650.3 1491.9,642.1 	"/>
	<polygon class="st77" points="1523.4,563.9 1534.2,600.3 1491.4,603.9 	"/>
	<polygon class="st77" points="1534.2,600.3 1491.9,642.1 1491.4,603.9 	"/>
	<polygon class="st78" points="1533.1,503.1 1508.3,536.4 1507.5,500.8 	"/>
	<polygon class="st79" points="1530,392.4 1532.7,426.1 1500.2,408.7 	"/>
	<polygon class="st80" points="1532.7,426.1 1526.5,455.9 1499.8,441.2 	"/>
	<polygon class="st80" points="1532.7,426.1 1499.8,441.2 1500.2,408.7 	"/>
	<polygon class="st36" points="1507.1,941.7 1532.3,981.2 1489.1,974.2 	"/>
	<polygon class="st36" points="1532.3,981.2 1522.6,1015.6 1483.5,1000.9 	"/>
	<polygon class="st36" points="1532.3,981.2 1483.5,1000.9 1489.1,974.2 	"/>
	<polygon class="st50" points="1522.6,1015.6 1530.3,1053.8 1496.5,1052.6 	"/>
	<polygon class="st75" points="1530.3,1053.8 1512.5,1079.5 1496.5,1052.6 	"/>
	<polygon class="st79" points="1523.6,363.6 1530,392.4 1500,373 	"/>
	<polygon class="st79" points="1530,392.4 1500.2,408.7 1500,373 	"/>
	<polygon class="st66" points="1500.7,295.6 1528.4,325.6 1508.3,335.7 	"/>
	<polygon class="st36" points="1515.1,887.8 1527.2,910.3 1485.8,902.6 	"/>
	<polygon class="st36" points="1527.2,910.3 1507.1,941.7 1485.8,902.6 	"/>
	<polygon class="st28" points="1527,836.1 1492.2,858.8 1512,826.8 	"/>
	<polygon class="st81" points="1526.5,455.9 1505.6,473.7 1499.8,441.2 	"/>
	<polygon class="st67" points="1526.2,650.3 1518.5,693.4 1493.4,670.2 	"/>
	<polygon class="st82" points="1526.2,650.3 1493.4,670.2 1491.9,642.1 	"/>
	<path class="st71" d="M1516.9,718.7l8.5,26.3l-25-3.6C1501.2,741.4,1516,720.1,1516.9,718.7
		C1516.9,718.7,1516.9,718.7,1516.9,718.7z"/>
	<polygon class="st71" points="1525.4,745 1497.6,763.4 1500.4,741.4 	"/>
	<polygon class="st79" points="1508.3,335.7 1523.6,363.6 1500,373 	"/>
	<polygon class="st73" points="1508.3,536.4 1523.4,563.9 1498.2,548.8 	"/>
	<polygon class="st73" points="1523.4,563.9 1491.4,603.9 1498.2,548.8 	"/>
	<polygon class="st50" points="1522.6,1015.6 1496.5,1052.6 1496.1,1021.2 	"/>
	<polygon class="st50" points="1522.6,1015.6 1496.1,1021.2 1483.5,1000.9 	"/>
	<polygon class="st24" points="1518.5,693.4 1516.9,718.7 1490.1,695.5 	"/>
	<polygon class="st67" points="1518.5,693.4 1490.1,695.5 1493.4,670.2 	"/>
	<path class="st24" d="M1516.9,718.7C1516.9,718.7,1516.9,718.7,1516.9,718.7l-16.5,22.7l-25.9-23.9c-0.1-0.1-0.2-0.1-0.2-0.1
		L1516.9,718.7z"/>
	<polygon class="st24" points="1516.9,718.7 1474.3,717.4 1490.1,695.5 	"/>
	<path class="st13" d="M1500.4,741.4l16.5-22.6C1516,720.1,1501.2,741.4,1500.4,741.4z"/>
	<polygon class="st36" points="1492.2,858.8 1515.1,887.8 1452.2,863 	"/>
	<polygon class="st36" points="1515.1,887.8 1485.8,902.6 1452.2,863 	"/>
	<polygon class="st75" points="1496.5,1052.6 1512.5,1079.5 1489.9,1079.3 	"/>
	<polygon class="st45" points="1507.9,794.8 1512,826.8 1489.3,821.7 	"/>
	<polygon class="st28" points="1512,826.8 1492.2,858.8 1489.3,821.7 	"/>
	<polygon class="st66" points="1500.7,295.6 1508.3,335.7 1496.1,310.7 	"/>
	<polygon class="st79" points="1496.1,310.7 1508.3,335.7 1482.2,329.1 	"/>
	<polygon class="st79" points="1508.3,335.7 1500,373 1482,354.7 	"/>
	<polygon class="st81" points="1507.5,500.8 1508.3,536.4 1468.8,528.7 	"/>
	<polygon class="st81" points="1508.3,536.4 1498.2,548.8 1468.8,528.7 	"/>
	<polygon class="st79" points="1508.3,335.7 1482,354.7 1482.2,329.1 	"/>
	<polygon class="st45" points="1497.6,763.4 1507.9,794.8 1469.7,789.7 	"/>
	<polygon class="st45" points="1507.9,794.8 1489.3,821.7 1469.7,789.7 	"/>
	<polygon class="st81" points="1505.6,473.7 1507.5,500.8 1478.9,488 	"/>
	<polygon class="st81" points="1507.5,500.8 1468.8,528.7 1464.2,504.1 	"/>
	<polygon class="st81" points="1507.5,500.8 1464.2,504.1 1478.9,488 	"/>
	<polygon class="st36" points="1485.8,902.6 1507.1,941.7 1464.3,928.1 	"/>
	<polygon class="st36" points="1507.1,941.7 1489.1,974.2 1480.4,953.9 	"/>
	<polygon class="st36" points="1507.1,941.7 1480.4,953.9 1464.3,928.1 	"/>
	<polygon class="st81" points="1499.8,441.2 1505.6,473.7 1479.6,458.4 	"/>
	<polygon class="st81" points="1505.6,473.7 1478.9,488 1479.6,458.4 	"/>
	<polygon class="st66" points="1461.6,253 1500.7,295.6 1479.4,284.6 	"/>
	<polygon class="st66" points="1500.7,295.6 1496.1,310.7 1479.4,284.6 	"/>
	<polygon class="st71" points="1500.4,741.4 1497.6,763.4 1451.6,731.4 	"/>
	<path class="st24" d="M1500.4,741.4l-48.8-10.1l22.7-13.9c0,0,0.1,0,0.2,0.1C1476.7,719.6,1499.7,741.4,1500.4,741.4z"/>
	<path class="st13" d="M1474.5,717.6l25.9,23.9C1499.7,741.4,1476.7,719.6,1474.5,717.6z"/>
	<polygon class="st83" points="1500,373 1500.2,408.7 1481.4,392 	"/>
	<polygon class="st80" points="1500.2,408.7 1499.8,441.2 1485.1,425.7 	"/>
	<polygon class="st83" points="1500.2,408.7 1485.1,425.7 1481.4,392 	"/>
	<polygon class="st79" points="1482,354.7 1500,373 1472.7,374 	"/>
	<polygon class="st83" points="1500,373 1481.4,392 1472.7,374 	"/>
	<polygon class="st80" points="1485.1,425.7 1499.8,441.2 1475,442.9 	"/>
	<polygon class="st80" points="1499.8,441.2 1479.6,458.4 1475,442.9 	"/>
	<polygon class="st73" points="1498.2,548.8 1491.4,603.9 1458.9,579.4 	"/>
	<polygon class="st84" points="1498.2,548.8 1458.9,579.4 1461.1,550.3 	"/>
	<polygon class="st81" points="1498.2,548.8 1461.1,550.3 1468.8,528.7 	"/>
	<polygon class="st85" points="1497.6,763.4 1469.7,789.7 1434.1,767 	"/>
	<polygon class="st85" points="1497.6,763.4 1434.1,767 1451.6,731.4 	"/>
	<polygon class="st50" points="1496.1,1021.2 1496.5,1052.6 1461.4,1030.3 	"/>
	<polygon class="st75" points="1496.5,1052.6 1489.9,1079.3 1470.7,1063.2 	"/>
	<polygon class="st75" points="1496.5,1052.6 1470.7,1063.2 1461.4,1030.3 	"/>
	<polygon class="st79" points="1479.4,284.6 1496.1,310.7 1466.1,300.7 	"/>
	<polygon class="st79" points="1496.1,310.7 1482.2,329.1 1466.1,300.7 	"/>
	<polygon class="st50" points="1483.5,1000.9 1496.1,1021.2 1461.4,1030.3 	"/>
	<polygon class="st23" points="1491.9,642.1 1493.4,670.2 1472.3,651.9 	"/>
	<polygon class="st86" points="1493.4,670.2 1490.1,695.5 1457.3,674.6 	"/>
	<polygon class="st87" points="1493.4,670.2 1457.3,674.6 1472.3,651.9 	"/>
	<polygon class="st88" points="1489.3,821.7 1492.2,858.8 1455.5,842.6 	"/>
	<polygon class="st36" points="1492.2,858.8 1452.2,863 1455.5,842.6 	"/>
	<polygon class="st89" points="1491.4,603.9 1491.9,642.1 1454.2,630.2 	"/>
	<polygon class="st89" points="1491.9,642.1 1472.3,651.9 1454.2,630.2 	"/>
	<polygon class="st90" points="1491.4,603.9 1454.2,630.2 1453.5,602.2 	"/>
	<polygon class="st91" points="1491.4,603.9 1453.5,602.2 1458.9,579.4 	"/>
	<polygon class="st86" points="1490.1,695.5 1474.3,717.4 1449.6,692.1 	"/>
	<polygon class="st86" points="1490.1,695.5 1449.6,692.1 1457.3,674.6 	"/>
	<polygon class="st92" points="1489.9,1079.3 1456,1079.3 1470.7,1063.2 	"/>
	<polygon class="st85" points="1469.7,789.7 1489.3,821.7 1435.4,799.2 	"/>
	<polygon class="st88" points="1489.3,821.7 1455.5,842.6 1435.4,799.2 	"/>
	<polygon class="st50" points="1480.4,953.9 1489.1,974.2 1456.8,974.4 	"/>
	<polygon class="st50" points="1489.1,974.2 1483.5,1000.9 1456.8,974.4 	"/>
	<polygon class="st36" points="1452.2,863 1485.8,902.6 1436.7,898.7 	"/>
	<polygon class="st36" points="1485.8,902.6 1464.3,928.1 1436.7,898.7 	"/>
	<polygon class="st83" points="1481.4,392 1485.1,425.7 1461.2,415.6 	"/>
	<polygon class="st80" points="1485.1,425.7 1475,442.9 1461.2,415.6 	"/>
	<polygon class="st50" points="1483.5,1000.9 1461.4,1030.3 1447.7,1004.2 	"/>
	<polygon class="st50" points="1483.5,1000.9 1447.7,1004.2 1456.8,974.4 	"/>
	<polygon class="st93" points="1466.1,300.7 1482.2,329.1 1456.2,330.7 	"/>
	<polygon class="st93" points="1482.2,329.1 1482,354.7 1456.2,330.7 	"/>
	<polygon class="st93" points="1482,354.7 1472.7,374 1454.5,354.3 	"/>
	<polygon class="st93" points="1482,354.7 1454.5,354.3 1456.2,330.7 	"/>
	<polygon class="st83" points="1472.7,374 1481.4,392 1455.8,390.7 	"/>
	<polygon class="st83" points="1481.4,392 1461.2,415.6 1455.8,390.7 	"/>
	<polygon class="st50" points="1464.3,928.1 1480.4,953.9 1448.1,947.7 	"/>
	<polygon class="st50" points="1480.4,953.9 1456.8,974.4 1448.1,947.7 	"/>
	<polygon class="st16" points="1475,442.9 1479.6,458.4 1459.2,474.8 	"/>
	<polygon class="st16" points="1479.6,458.4 1478.9,488 1459.2,474.8 	"/>
	<polygon class="st13" points="1461.6,253 1479.4,284.6 1472.3,273 	"/>
	<polygon class="st79" points="1472.3,273 1479.4,284.6 1460.1,280.5 	"/>
	<polygon class="st79" points="1479.4,284.6 1466.1,300.7 1460.1,280.5 	"/>
	<polygon class="st16" points="1478.9,488 1464.2,504.1 1459.2,474.8 	"/>
	<polygon class="st80" points="1461.2,415.6 1475,442.9 1450,441.2 	"/>
	<polygon class="st16" points="1475,442.9 1459.2,474.8 1450,441.2 	"/>
	<polygon class="st86" points="1449.6,692.1 1474.3,717.4 1451.6,731.4 	"/>
	<polygon class="st83" points="1454.5,354.3 1472.7,374 1441.9,373.6 	"/>
	<polygon class="st83" points="1472.7,374 1455.8,390.7 1441.9,373.6 	"/>
	<polygon class="st79" points="1461.6,253 1472.3,273 1460.1,280.5 	"/>
	<polygon class="st89" points="1454.2,630.2 1472.3,651.9 1439.2,659.6 	"/>
	<polygon class="st89" points="1472.3,651.9 1457.3,674.6 1439.2,659.6 	"/>
	<polygon class="st92" points="1461.4,1030.3 1470.7,1063.2 1437.8,1040.8 	"/>
	<polygon class="st92" points="1470.7,1063.2 1456,1079.3 1437.8,1040.8 	"/>
	<polygon class="st94" points="1469.7,789.7 1435.4,799.2 1434.1,767 	"/>
	<polygon class="st81" points="1464.2,504.1 1468.8,528.7 1444,527.5 	"/>
	<polygon class="st81" points="1468.8,528.7 1461.1,550.3 1444,527.5 	"/>
	<polygon class="st93" points="1460.1,280.5 1466.1,300.7 1447.5,293.7 	"/>
	<polygon class="st93" points="1466.1,300.7 1456.2,330.7 1442.3,314.6 	"/>
	<polygon class="st93" points="1466.1,300.7 1442.3,314.6 1447.5,293.7 	"/>
	<polygon class="st50" points="1436.7,898.7 1464.3,928.1 1416.2,922.7 	"/>
	<polygon class="st50" points="1464.3,928.1 1448.1,947.7 1416.2,922.7 	"/>
	<polygon class="st16" points="1459.2,474.8 1464.2,504.1 1436.3,487.2 	"/>
	<polygon class="st16" points="1464.2,504.1 1444,527.5 1413.1,511.6 	"/>
	<polygon class="st16" points="1464.2,504.1 1413.1,511.6 1436.3,487.2 	"/>
	<polygon class="st83" points="1448.7,238.5 1461.6,253 1446.3,265.8 	"/>
	<polygon class="st95" points="1461.6,253 1460.1,280.5 1446.3,265.8 	"/>
	<polygon class="st75" points="1447.7,1004.2 1461.4,1030.3 1437.8,1040.8 	"/>
	<polygon class="st83" points="1455.8,390.7 1461.2,415.6 1439.4,403.6 	"/>
	<polygon class="st80" points="1461.2,415.6 1450,441.2 1437.1,421.2 	"/>
	<polygon class="st80" points="1461.2,415.6 1437.1,421.2 1439.4,403.6 	"/>
	<polygon class="st81" points="1444,527.5 1461.1,550.3 1422,546.8 	"/>
	<polygon class="st84" points="1461.1,550.3 1458.9,579.4 1437.1,564.3 	"/>
	<polygon class="st96" points="1461.1,550.3 1437.1,564.3 1422,546.8 	"/>
	<polygon class="st95" points="1446.3,265.8 1460.1,280.5 1447.5,293.7 	"/>
	<polygon class="st16" points="1450,441.2 1459.2,474.8 1425.2,463.2 	"/>
	<polygon class="st16" points="1459.2,474.8 1436.3,487.2 1425.2,463.2 	"/>
	<polygon class="st91" points="1458.9,579.4 1453.5,602.2 1428,583 	"/>
	<polygon class="st97" points="1458.9,579.4 1428,583 1437.1,564.3 	"/>
	<polygon class="st89" points="1457.3,674.6 1449.6,692.1 1423.2,685.9 	"/>
	<polygon class="st89" points="1457.3,674.6 1423.2,685.9 1439.2,659.6 	"/>
	<polygon class="st50" points="1448.1,947.7 1456.8,974.4 1411.5,956.6 	"/>
	<polygon class="st50" points="1456.8,974.4 1447.7,1004.2 1416.7,989.3 	"/>
	<polygon class="st75" points="1456.8,974.4 1416.7,989.3 1411.5,956.6 	"/>
	<polygon class="st93" points="1442.3,314.6 1456.2,330.7 1438.4,331.6 	"/>
	<polygon class="st93" points="1456.2,330.7 1454.5,354.3 1438.4,331.6 	"/>
	<polygon class="st98" points="1437.8,1040.8 1456,1079.3 1429.7,1066.7 	"/>
	<polygon class="st99" points="1456,1079.3 1406.5,1079.2 1429.7,1066.7 	"/>
	<polygon class="st83" points="1441.9,373.6 1455.8,390.7 1424.5,391.2 	"/>
	<polygon class="st83" points="1455.8,390.7 1439.4,403.6 1424.5,391.2 	"/>
	<polygon class="st88" points="1435.4,799.2 1455.5,842.6 1404.2,836.4 	"/>
	<polygon class="st36" points="1455.5,842.6 1452.2,863 1404.2,836.4 	"/>
	<polygon class="st93" points="1438.4,331.6 1454.5,354.3 1428.3,346.9 	"/>
	<polygon class="st83" points="1454.5,354.3 1441.9,373.6 1428.3,346.9 	"/>
	<polygon class="st90" points="1453.5,602.2 1454.2,630.2 1418.6,616.8 	"/>
	<polygon class="st89" points="1454.2,630.2 1439.2,659.6 1415,653.4 	"/>
	<polygon class="st90" points="1454.2,630.2 1415,653.4 1418.6,616.8 	"/>
	<polygon class="st91" points="1453.5,602.2 1418.6,616.8 1428,583 	"/>
	<polygon class="st36" points="1452.2,863 1436.7,898.7 1393.3,877.4 	"/>
	<polygon class="st36" points="1452.2,863 1393.3,877.4 1404.2,836.4 	"/>
	<polygon class="st85" points="1449.6,692.1 1451.6,731.4 1423.2,685.9 	"/>
	<polygon class="st85" points="1423.2,685.9 1451.6,731.4 1403.6,704.3 	"/>
	<polygon class="st85" points="1451.6,731.4 1434.1,767 1411.9,740.4 	"/>
	<polygon class="st85" points="1451.6,731.4 1411.9,740.4 1403.6,704.3 	"/>
	<polygon class="st16" points="1437.1,421.2 1450,441.2 1423.3,435.4 	"/>
	<polygon class="st16" points="1450,441.2 1425.2,463.2 1423.3,435.4 	"/>
	<polygon class="st83" points="1448.7,238.5 1446.3,265.8 1435.9,230.8 	"/>
	<polygon class="st50" points="1448.1,947.7 1411.5,956.6 1416.2,922.7 	"/>
	<polygon class="st75" points="1447.7,1004.2 1437.8,1040.8 1410.5,1022 	"/>
	<polygon class="st75" points="1447.7,1004.2 1410.5,1022 1416.7,989.3 	"/>
	<polygon class="st95" points="1446.3,265.8 1447.5,293.7 1426.4,287.3 	"/>
	<polygon class="st95" points="1447.5,293.7 1442.3,314.6 1421.2,313 	"/>
	<polygon class="st95" points="1447.5,293.7 1421.2,313 1426.4,287.3 	"/>
	<polygon class="st83" points="1435.9,230.8 1446.3,265.8 1431.8,261.8 	"/>
	<polygon class="st95" points="1446.3,265.8 1426.4,287.3 1431.8,261.8 	"/>
	<polygon class="st81" points="1444,527.5 1422,546.8 1413.1,511.6 	"/>
	<polygon class="st95" points="1442.3,314.6 1438.4,331.6 1421.2,313 	"/>
	<polygon class="st83" points="1428.3,346.9 1441.9,373.6 1422.7,370.3 	"/>
	<polygon class="st83" points="1441.9,373.6 1424.5,391.2 1422.7,370.3 	"/>
	<polygon class="st80" points="1439.4,403.6 1437.1,421.2 1416.8,404.4 	"/>
	<polygon class="st80" points="1439.4,403.6 1416.8,404.4 1424.5,391.2 	"/>
	<polygon class="st100" points="1439.2,659.6 1423.2,685.9 1394.9,679.2 	"/>
	<polygon class="st100" points="1439.2,659.6 1394.9,679.2 1415,653.4 	"/>
	<polygon class="st95" points="1421.2,313 1438.4,331.6 1423.1,329.3 	"/>
	<polygon class="st93" points="1438.4,331.6 1428.3,346.9 1423.1,329.3 	"/>
	<polygon class="st98" points="1437.8,1040.8 1429.7,1066.7 1392.5,1043.9 	"/>
	<polygon class="st98" points="1437.8,1040.8 1392.5,1043.9 1410.5,1022 	"/>
	<polygon class="st16" points="1437.1,421.2 1423.3,435.4 1416.8,404.4 	"/>
	<polygon class="st96" points="1422,546.8 1437.1,564.3 1400.1,565.8 	"/>
	<polygon class="st97" points="1437.1,564.3 1428,583 1400.1,565.8 	"/>
	<polygon class="st50" points="1436.7,898.7 1416.2,922.7 1393.3,877.4 	"/>
	<polygon class="st16" points="1425.2,463.2 1436.3,487.2 1394.7,492.4 	"/>
	<polygon class="st16" points="1436.3,487.2 1413.1,511.6 1394.7,492.4 	"/>
	<polygon class="st83" points="1435.9,230.8 1431.8,261.8 1417.1,249.2 	"/>
	<polygon class="st94" points="1434.1,767 1435.4,799.2 1400.5,777.3 	"/>
	<polygon class="st88" points="1435.4,799.2 1404.2,836.4 1400.5,777.3 	"/>
	<polygon class="st101" points="1411.9,740.4 1434.1,767 1378.9,757.2 	"/>
	<polygon class="st101" points="1434.1,767 1400.5,777.3 1378.9,757.2 	"/>
	<polygon class="st83" points="1431.8,261.8 1426.4,287.3 1408.6,267.9 	"/>
	<polygon class="st83" points="1431.8,261.8 1408.6,267.9 1417.1,249.2 	"/>
	<polygon class="st99" points="1429.7,1066.7 1406.5,1079.2 1392.5,1043.9 	"/>
	<polygon class="st83" points="1423.1,329.3 1428.3,346.9 1404.5,341.1 	"/>
	<polygon class="st83" points="1428.3,346.9 1422.7,370.3 1404.5,341.1 	"/>
	<polygon class="st91" points="1428,583 1418.6,616.8 1403.4,590.8 	"/>
	<polygon class="st97" points="1428,583 1403.4,590.8 1400.1,565.8 	"/>
	<polygon class="st83" points="1408.6,267.9 1426.4,287.3 1406.1,290.6 	"/>
	<polygon class="st83" points="1426.4,287.3 1421.2,313 1406.1,290.6 	"/>
	<polygon class="st16" points="1423.3,435.4 1425.2,463.2 1402.2,447.6 	"/>
	<polygon class="st16" points="1425.2,463.2 1394.7,492.4 1395.8,472.9 	"/>
	<polygon class="st16" points="1425.2,463.2 1395.8,472.9 1402.2,447.6 	"/>
	<polygon class="st83" points="1422.7,370.3 1424.5,391.2 1403,364.1 	"/>
	<polygon class="st83" points="1403,364.1 1424.5,391.2 1400.1,382.5 	"/>
	<polygon class="st16" points="1424.5,391.2 1416.8,404.4 1400.1,382.5 	"/>
	<polygon class="st16" points="1416.8,404.4 1423.3,435.4 1396.2,419.9 	"/>
	<polygon class="st16" points="1423.3,435.4 1402.2,447.6 1396.2,419.9 	"/>
	<polygon class="st100" points="1423.2,685.9 1403.6,704.3 1394.9,679.2 	"/>
	<polygon class="st83" points="1421.2,313 1423.1,329.3 1404.7,314.6 	"/>
	<polygon class="st83" points="1423.1,329.3 1404.5,341.1 1404.7,314.6 	"/>
	<polygon class="st83" points="1404.5,341.1 1422.7,370.3 1403,364.1 	"/>
	<polygon class="st81" points="1413.1,511.6 1422,546.8 1384.8,541 	"/>
	<polygon class="st96" points="1422,546.8 1400.1,565.8 1384.8,541 	"/>
	<polygon class="st83" points="1406.1,290.6 1421.2,313 1404.7,314.6 	"/>
	<polygon class="st91" points="1403.4,590.8 1418.6,616.8 1386.9,610.9 	"/>
	<polygon class="st90" points="1418.6,616.8 1415,653.4 1386.9,610.9 	"/>
	<polygon class="st16" points="1400.1,382.5 1416.8,404.4 1386.3,396.9 	"/>
	<polygon class="st16" points="1416.8,404.4 1396.2,419.9 1386.3,396.9 	"/>
	<polygon class="st50" points="1411.5,956.6 1416.7,989.3 1396.4,993.6 	"/>
	<polygon class="st50" points="1416.7,989.3 1410.5,1022 1396.4,993.6 	"/>
	<polygon class="st50" points="1393.3,877.4 1416.2,922.7 1384.8,937 	"/>
	<polygon class="st75" points="1416.2,922.7 1411.5,956.6 1384.8,937 	"/>
	<polygon class="st90" points="1386.9,610.9 1415,653.4 1375.7,641.3 	"/>
	<polygon class="st90" points="1415,653.4 1394.9,679.2 1352,662.2 	"/>
	<polygon class="st90" points="1415,653.4 1352,662.2 1375.7,641.3 	"/>
	<polygon class="st16" points="1394.7,492.4 1413.1,511.6 1378.2,514.3 	"/>
	<polygon class="st81" points="1413.1,511.6 1384.8,541 1378.2,514.3 	"/>
	<polygon class="st102" points="1403.6,704.3 1411.9,740.4 1368.7,703.6 	"/>
	<polygon class="st101" points="1411.9,740.4 1378.9,757.2 1367.6,729.6 	"/>
	<polygon class="st102" points="1411.9,740.4 1367.6,729.6 1368.7,703.6 	"/>
	<polygon class="st75" points="1411.5,956.6 1396.4,993.6 1384.8,937 	"/>
	<polygon class="st92" points="1396.4,993.6 1410.5,1022 1392.5,1043.9 	"/>
	<polygon class="st99" points="1392.5,1043.9 1406.5,1079.2 1357.7,1079.5 	"/>
	<polygon class="st103" points="1400.5,777.3 1404.2,836.4 1380.2,804 	"/>
	<polygon class="st104" points="1380.2,804 1404.2,836.4 1360.8,821.7 	"/>
	<polygon class="st36" points="1404.2,836.4 1393.3,877.4 1360.8,821.7 	"/>
	<polygon class="st90" points="1394.9,679.2 1403.6,704.3 1368.7,703.6 	"/>
	<polygon class="st97" points="1400.1,565.8 1403.4,590.8 1374.9,569.9 	"/>
	<polygon class="st91" points="1403.4,590.8 1386.9,610.9 1372,594.5 	"/>
	<polygon class="st97" points="1403.4,590.8 1372,594.5 1374.9,569.9 	"/>
	<polygon class="st16" points="1403,364.1 1400.1,382.5 1383.8,377.6 	"/>
	<polygon class="st16" points="1403,364.1 1383.8,377.6 1378.9,347.4 	"/>
	<polygon class="st16" points="1396.2,419.9 1402.2,447.6 1380.9,453.2 	"/>
	<polygon class="st16" points="1402.2,447.6 1395.8,472.9 1380.9,453.2 	"/>
	<polygon class="st103" points="1400.5,777.3 1380.2,804 1378.9,757.2 	"/>
	<polygon class="st16" points="1400.1,382.5 1386.3,396.9 1383.8,377.6 	"/>
	<polygon class="st96" points="1384.8,541 1400.1,565.8 1374.9,569.9 	"/>
	<polygon class="st50" points="1384.8,937 1396.4,993.6 1361.6,950.2 	"/>
	<polygon class="st92" points="1361.6,950.2 1396.4,993.6 1362.3,989.7 	"/>
	<polygon class="st92" points="1396.4,993.6 1392.5,1043.9 1357.7,1027.6 	"/>
	<polygon class="st92" points="1396.4,993.6 1357.7,1027.6 1362.3,989.7 	"/>
	<polygon class="st16" points="1386.3,396.9 1396.2,419.9 1367.5,409.6 	"/>
	<polygon class="st16" points="1396.2,419.9 1380.9,453.2 1364.9,431.8 	"/>
	<polygon class="st16" points="1396.2,419.9 1364.9,431.8 1367.5,409.6 	"/>
	<polygon class="st16" points="1380.9,453.2 1395.8,472.9 1368,493.8 	"/>
	<polygon class="st16" points="1395.8,472.9 1394.7,492.4 1368,493.8 	"/>
	<polygon class="st90" points="1394.9,679.2 1368.7,703.6 1352,662.2 	"/>
	<polygon class="st16" points="1394.7,492.4 1378.2,514.3 1368,493.8 	"/>
	<polygon class="st50" points="1360.8,821.7 1393.3,877.4 1364.7,890.6 	"/>
	<polygon class="st50" points="1393.3,877.4 1384.8,937 1364.7,890.6 	"/>
	<polygon class="st99" points="1392.5,1043.9 1357.7,1079.5 1357.7,1027.6 	"/>
	<polygon class="st91" points="1372,594.5 1386.9,610.9 1347.4,625.6 	"/>
	<polygon class="st91" points="1386.9,610.9 1375.7,641.3 1347.4,625.6 	"/>
	<polygon class="st16" points="1383.8,377.6 1386.3,396.9 1344,380.9 	"/>
	<polygon class="st16" points="1386.3,396.9 1367.5,409.6 1344,380.9 	"/>
	<polygon class="st81" points="1378.2,514.3 1384.8,541 1353.4,527.9 	"/>
	<polygon class="st96" points="1384.8,541 1374.9,569.9 1348.4,557.7 	"/>
	<polygon class="st75" points="1364.7,890.6 1384.8,937 1361.6,950.2 	"/>
	<polygon class="st105" points="1384.8,541 1348.4,557.7 1353.4,527.9 	"/>
	<polygon class="st16" points="1378.9,347.4 1383.8,377.6 1357.7,362.8 	"/>
	<polygon class="st16" points="1383.8,377.6 1344,380.9 1357.7,362.8 	"/>
	<polygon class="st16" points="1364.9,431.8 1380.9,453.2 1337.3,446.7 	"/>
	<polygon class="st16" points="1380.9,453.2 1368,493.8 1356.2,470.5 	"/>
	<polygon class="st16" points="1380.9,453.2 1356.2,470.5 1337.3,446.7 	"/>
	<polygon class="st103" points="1378.9,757.2 1380.2,804 1346.9,757.7 	"/>
	<polygon class="st104" points="1346.9,757.7 1380.2,804 1353.1,797.7 	"/>
	<polygon class="st104" points="1380.2,804 1360.8,821.7 1353.1,797.7 	"/>
	<polygon class="st103" points="1367.6,729.6 1378.9,757.2 1346.9,757.7 	"/>
	<polygon class="st16" points="1378.9,347.4 1357.7,362.8 1356.2,330.6 	"/>
	<polygon class="st81" points="1368,493.8 1378.2,514.3 1353.4,527.9 	"/>
	<polygon class="st91" points="1375.7,641.3 1352,662.2 1347.4,625.6 	"/>
	<polygon class="st97" points="1374.9,569.9 1372,594.5 1345.7,587.9 	"/>
	<polygon class="st106" points="1374.9,569.9 1345.7,587.9 1348.4,557.7 	"/>
	<polygon class="st97" points="1372,594.5 1347.4,625.6 1345.7,587.9 	"/>
	<polygon class="st107" points="1352,662.2 1368.7,703.6 1330,694.5 	"/>
	<polygon class="st107" points="1368.7,703.6 1367.6,729.6 1334.5,727.5 	"/>
	<polygon class="st107" points="1368.7,703.6 1334.5,727.5 1330,694.5 	"/>
	<polygon class="st81" points="1356.2,470.5 1368,493.8 1331.8,496.1 	"/>
	<polygon class="st81" points="1368,493.8 1353.4,527.9 1331.8,496.1 	"/>
	<polygon class="st107" points="1367.6,729.6 1346.9,757.7 1334.5,727.5 	"/>
	<polygon class="st16" points="1344,380.9 1367.5,409.6 1343,416.8 	"/>
	<polygon class="st16" points="1367.5,409.6 1364.9,431.8 1343,416.8 	"/>
	<polygon class="st16" points="1364.9,431.8 1337.3,446.7 1343,416.8 	"/>
	<polygon class="st104" points="1353.1,797.7 1360.8,821.7 1327.9,815.5 	"/>
	<polygon class="st16" points="1356.2,330.6 1357.7,362.8 1330.3,337.3 	"/>
	<polygon class="st16" points="1357.7,362.8 1344,380.9 1313.8,355.6 	"/>
	<polygon class="st16" points="1357.7,362.8 1313.8,355.6 1330.3,337.3 	"/>
	<polygon class="st81" points="1337.3,446.7 1356.2,470.5 1331.8,496.1 	"/>
	<polygon class="st16" points="1356.2,330.6 1330.3,337.3 1331.4,315.4 	"/>
	<polygon class="st108" points="1331.8,496.1 1353.4,527.9 1320.9,512.4 	"/>
	<polygon class="st109" points="1353.4,527.9 1348.4,557.7 1317.1,534.1 	"/>
	<polygon class="st110" points="1353.4,527.9 1317.1,534.1 1320.9,512.4 	"/>
	<polygon class="st75" points="1346.9,757.7 1353.1,797.7 1302.7,783.8 	"/>
	<polygon class="st104" points="1353.1,797.7 1327.9,815.5 1302.7,783.8 	"/>
	<polygon class="st97" points="1347.4,625.6 1352,662.2 1318,641 	"/>
	<polygon class="st97" points="1352,662.2 1330,694.5 1297.3,667.9 	"/>
	<polygon class="st97" points="1352,662.2 1297.3,667.9 1318,641 	"/>
	<polygon class="st106" points="1348.4,557.7 1345.7,587.9 1317.4,592.5 	"/>
	<polygon class="st111" points="1348.4,557.7 1317.4,592.5 1309.7,549.6 	"/>
	<polygon class="st112" points="1348.4,557.7 1309.7,549.6 1317.1,534.1 	"/>
	<polygon class="st97" points="1345.7,587.9 1347.4,625.6 1320.2,619.6 	"/>
	<polygon class="st97" points="1347.4,625.6 1318,641 1320.2,619.6 	"/>
	<polygon class="st104" points="1334.5,727.5 1346.9,757.7 1315.4,743 	"/>
	<polygon class="st75" points="1346.9,757.7 1302.7,783.8 1315.4,743 	"/>
	<polygon class="st106" points="1345.7,587.9 1320.2,619.6 1317.4,592.5 	"/>
	<polygon class="st16" points="1344,380.9 1343,416.8 1326.5,391 	"/>
	<polygon class="st16" points="1344,380.9 1326.5,391 1313.8,355.6 	"/>
	<polygon class="st113" points="1326.5,391 1343,416.8 1306.6,409.3 	"/>
	<polygon class="st81" points="1343,416.8 1337.3,446.7 1307.4,447 	"/>
	<polygon class="st114" points="1343,416.8 1307.4,447 1305.4,430.7 	"/>
	<polygon class="st115" points="1343,416.8 1305.4,430.7 1306.6,409.3 	"/>
	<polygon class="st81" points="1337.3,446.7 1331.8,496.1 1310.1,471.8 	"/>
	<polygon class="st81" points="1337.3,446.7 1310.1,471.8 1307.4,447 	"/>
	<polygon class="st97" points="1330,694.5 1334.5,727.5 1295.8,701.9 	"/>
	<polygon class="st75" points="1334.5,727.5 1315.4,743 1292.9,727.2 	"/>
	<polygon class="st106" points="1334.5,727.5 1292.9,727.2 1295.8,701.9 	"/>
	<polygon class="st108" points="1310.1,471.8 1331.8,496.1 1305.1,497.3 	"/>
	<polygon class="st108" points="1331.8,496.1 1320.9,512.4 1305.1,497.3 	"/>
	<polygon class="st16" points="1331.4,315.4 1330.3,337.3 1312.8,330.3 	"/>
	<polygon class="st16" points="1331.4,315.4 1312.8,330.3 1289.8,309.2 	"/>
	<polygon class="st16" points="1331.4,315.4 1289.8,309.2 1309.7,299.9 	"/>
	<polygon class="st16" points="1330.3,337.3 1313.8,355.6 1312.8,330.3 	"/>
	<polygon class="st97" points="1330,694.5 1295.8,701.9 1297.3,667.9 	"/>
	<polygon class="st104" points="1302.7,783.8 1327.9,815.5 1274.1,815.5 	"/>
	<polygon class="st113" points="1313.8,355.6 1326.5,391 1300.7,383.5 	"/>
	<polygon class="st113" points="1326.5,391 1306.6,409.3 1300.7,383.5 	"/>
	<polygon class="st116" points="1320.9,512.4 1317.1,534.1 1280.7,527.1 	"/>
	<polygon class="st116" points="1320.9,512.4 1280.7,527.1 1305.1,497.3 	"/>
	<polygon class="st106" points="1317.4,592.5 1320.2,619.6 1287.6,622.3 	"/>
	<polygon class="st106" points="1320.2,619.6 1318,641 1287.6,622.3 	"/>
	<polygon class="st106" points="1318,641 1297.3,667.9 1294,645.6 	"/>
	<polygon class="st106" points="1318,641 1294,645.6 1287.6,622.3 	"/>
	<polygon class="st117" points="1309.7,549.6 1317.4,592.5 1288,576.9 	"/>
	<polygon class="st118" points="1317.4,592.5 1287.6,622.3 1268.7,595.6 	"/>
	<polygon class="st119" points="1317.4,592.5 1268.7,595.6 1288,576.9 	"/>
	<polygon class="st120" points="1317.1,534.1 1309.7,549.6 1289.5,545.3 	"/>
	<polygon class="st116" points="1317.1,534.1 1289.5,545.3 1280.7,527.1 	"/>
	<polygon class="st75" points="1315.4,743 1302.7,783.8 1291.9,756.7 	"/>
	<polygon class="st75" points="1315.4,743 1291.9,756.7 1292.9,727.2 	"/>
	<polygon class="st121" points="1312.8,330.3 1313.8,355.6 1304.3,339.1 	"/>
	<polygon class="st113" points="1304.3,339.1 1313.8,355.6 1289.6,359.5 	"/>
	<polygon class="st113" points="1313.8,355.6 1300.7,383.5 1289.6,359.5 	"/>
	<polygon class="st16" points="1312.8,330.3 1304.3,339.1 1289.8,309.2 	"/>
	<polygon class="st122" points="1307.4,447 1310.1,471.8 1281.1,469.4 	"/>
	<polygon class="st123" points="1310.1,471.8 1305.1,497.3 1281.1,469.4 	"/>
	<polygon class="st124" points="1309.7,549.6 1288,576.9 1289.5,545.3 	"/>
	<polygon class="st125" points="1309.7,299.9 1289.8,309.2 1292.7,283.9 	"/>
	<polygon class="st125" points="1305.4,430.7 1307.4,447 1279.5,442.7 	"/>
	<polygon class="st126" points="1307.4,447 1281.1,469.4 1279.5,442.7 	"/>
	<polygon class="st125" points="1306.6,409.3 1305.4,430.7 1279.5,442.7 	"/>
	<polygon class="st127" points="1281.1,469.4 1305.1,497.3 1273.3,509.1 	"/>
	<polygon class="st128" points="1305.1,497.3 1280.7,527.1 1273.3,509.1 	"/>
	<polygon class="st113" points="1289.8,309.2 1304.3,339.1 1283.4,337 	"/>
	<polygon class="st113" points="1304.3,339.1 1289.6,359.5 1283.4,337 	"/>
	<polygon class="st50" points="1291.9,756.7 1302.7,783.8 1263.2,791 	"/>
	<polygon class="st104" points="1302.7,783.8 1274.1,815.5 1263.2,791 	"/>
	<polygon class="st106" points="1294,645.6 1297.3,667.9 1260,655.8 	"/>
	<polygon class="st106" points="1297.3,667.9 1295.8,701.9 1246.6,690.5 	"/>
	<polygon class="st106" points="1297.3,667.9 1246.6,690.5 1260,655.8 	"/>
	<polygon class="st106" points="1295.8,701.9 1292.9,727.2 1246.6,690.5 	"/>
	<polygon class="st106" points="1287.6,622.3 1294,645.6 1260,655.8 	"/>
	<polygon class="st75" points="1292.9,727.2 1291.9,756.7 1262.7,767.8 	"/>
	<polygon class="st50" points="1292.9,727.2 1262.7,767.8 1221.7,745 	"/>
	<polygon class="st50" points="1292.9,727.2 1221.7,745 1236.2,717.2 	"/>
	<polygon class="st75" points="1292.9,727.2 1236.2,717.2 1246.6,690.5 	"/>
	<polygon class="st75" points="1291.9,756.7 1263.2,791 1262.7,767.8 	"/>
	<polygon class="st129" points="1280.7,527.1 1289.5,545.3 1267.1,546.5 	"/>
	<polygon class="st130" points="1289.5,545.3 1288,576.9 1282.6,560.6 	"/>
	<polygon class="st131" points="1289.5,545.3 1282.6,560.6 1267.1,546.5 	"/>
	<polygon class="st132" points="1282.6,560.6 1288,576.9 1262.9,572.6 	"/>
	<polygon class="st133" points="1288,576.9 1268.7,595.6 1262.9,572.6 	"/>
	<polygon class="st134" points="1268.7,595.6 1287.6,622.3 1230,609.2 	"/>
	<polygon class="st135" points="1287.6,622.3 1260,655.8 1232.3,638.7 	"/>
	<polygon class="st134" points="1287.6,622.3 1232.3,638.7 1230,609.2 	"/>
	<polygon class="st136" points="1282.6,560.6 1262.9,572.6 1267.1,546.5 	"/>
	<polygon class="st137" points="1279.5,442.7 1281.1,469.4 1245.1,459.8 	"/>
	<polygon class="st138" points="1281.1,469.4 1273.3,509.1 1256.7,483.4 	"/>
	<polygon class="st139" points="1281.1,469.4 1256.7,483.4 1245.1,459.8 	"/>
	<polygon class="st128" points="1273.3,509.1 1280.7,527.1 1239.6,541.4 	"/>
	<polygon class="st140" points="1280.7,527.1 1267.1,546.5 1239.6,541.4 	"/>
	<polygon class="st104" points="1263.2,791 1274.1,815.5 1237.4,818.8 	"/>
	<polygon class="st141" points="1256.7,483.4 1273.3,509.1 1233.4,512.4 	"/>
	<polygon class="st142" points="1273.3,509.1 1239.6,541.4 1233.4,512.4 	"/>
	<polygon class="st143" points="1262.9,572.6 1268.7,595.6 1247.4,569.3 	"/>
	<polygon class="st144" points="1247.4,569.3 1268.7,595.6 1245.1,592.5 	"/>
	<polygon class="st145" points="1268.7,595.6 1230,609.2 1245.1,592.5 	"/>
	<polygon class="st146" points="1267.1,546.5 1262.9,572.6 1247.4,569.3 	"/>
	<polygon class="st147" points="1267.1,546.5 1247.4,569.3 1239.6,541.4 	"/>
	<polygon class="st50" points="1262.7,767.8 1263.2,791 1216,781.2 	"/>
	<polygon class="st104" points="1263.2,791 1237.4,818.8 1210.6,810.6 	"/>
	<polygon class="st104" points="1263.2,791 1210.6,810.6 1216,781.2 	"/>
	<polygon class="st50" points="1262.7,767.8 1216,781.2 1220.4,769.6 	"/>
	<polygon class="st50" points="1262.7,767.8 1220.4,769.6 1221.7,745 	"/>
	<polygon class="st148" points="1260,655.8 1246.6,690.5 1232.3,638.7 	"/>
	<polygon class="st149" points="1245.1,459.8 1256.7,483.4 1219.9,483.4 	"/>
	<polygon class="st150" points="1256.7,483.4 1233.4,512.4 1219.9,483.4 	"/>
	<polygon class="st151" points="1239.6,541.4 1247.4,569.3 1226.9,584 	"/>
	<polygon class="st152" points="1247.4,569.3 1245.1,592.5 1226.9,584 	"/>
	<polygon class="st153" points="1232.3,638.7 1246.6,690.5 1203.4,685.7 	"/>
	<polygon class="st75" points="1246.6,690.5 1236.2,717.2 1203.4,685.7 	"/>
	<polygon class="st154" points="1245.1,592.5 1230,609.2 1226.9,584 	"/>
	<polygon class="st155" points="1233.4,512.4 1239.6,541.4 1197.1,514.7 	"/>
	<polygon class="st156" points="1239.6,541.4 1226.9,584 1189.7,549.6 	"/>
	<polygon class="st157" points="1239.6,541.4 1189.7,549.6 1197.1,514.7 	"/>
	<polygon class="st50" points="1236.2,717.2 1221.7,745 1203.4,685.7 	"/>
	<polygon class="st138" points="1219.9,483.4 1233.4,512.4 1197.1,514.7 	"/>
	<polygon class="st158" points="1230,609.2 1232.3,638.7 1190.5,635.5 	"/>
	<polygon class="st159" points="1232.3,638.7 1203.4,685.7 1183.7,660.3 	"/>
	<polygon class="st158" points="1232.3,638.7 1183.7,660.3 1190.5,635.5 	"/>
	<polygon class="st160" points="1226.9,584 1230,609.2 1201.7,599.9 	"/>
	<polygon class="st161" points="1230,609.2 1190.5,635.5 1201.7,599.9 	"/>
	<polygon class="st162" points="1226.9,584 1201.7,599.9 1184.3,579.4 	"/>
	<polygon class="st163" points="1226.9,584 1184.3,579.4 1189.7,549.6 	"/>
	<polygon class="st164" points="1203.4,685.7 1221.7,745 1182,725.4 	"/>
	<polygon class="st165" points="1221.7,745 1220.4,769.6 1182,725.4 	"/>
	<polygon class="st166" points="1182,725.4 1220.4,769.6 1190,756.9 	"/>
	<polygon class="st167" points="1220.4,769.6 1216,781.2 1186.3,783.8 	"/>
	<polygon class="st168" points="1220.4,769.6 1186.3,783.8 1190,756.9 	"/>
	<polygon class="st169" points="1216,781.2 1210.6,810.6 1186.3,783.8 	"/>
	<polygon class="st151" points="1183.7,660.3 1203.4,685.7 1176,671.2 	"/>
	<polygon class="st153" points="1203.4,685.7 1182,725.4 1176,671.2 	"/>
	<polygon class="st170" points="1184.3,579.4 1201.7,599.9 1172.7,598.7 	"/>
	<polygon class="st171" points="1201.7,599.9 1190.5,635.5 1172.7,598.7 	"/>
	<polygon class="st134" points="1172.7,598.7 1190.5,635.5 1145.6,625.8 	"/>
	<polygon class="st158" points="1190.5,635.5 1183.7,660.3 1153.9,654.1 	"/>
	<polygon class="st171" points="1190.5,635.5 1153.9,654.1 1145.6,625.8 	"/>
	<polygon class="st92" points="1182,725.4 1190,756.9 1157.4,741.4 	"/>
	<polygon class="st172" points="1190,756.9 1186.3,783.8 1171.4,767.8 	"/>
	<polygon class="st172" points="1190,756.9 1171.4,767.8 1157.4,741.4 	"/>
	<polygon class="st173" points="1183.7,660.3 1176,671.2 1153.9,654.1 	"/>
	<polygon class="st174" points="1176,671.2 1182,725.4 1169.3,700.1 	"/>
	<polygon class="st98" points="1169.3,700.1 1182,725.4 1157.4,741.4 	"/>
	<polygon class="st175" points="1176,671.2 1169.3,700.1 1143.8,688.3 	"/>
	<polygon class="st176" points="1176,671.2 1143.8,688.3 1132.8,673.4 	"/>
	<polygon class="st177" points="1176,671.2 1132.8,673.4 1153.9,654.1 	"/>
	<polygon class="st174" points="1157.4,741.4 1171.4,767.8 1151.2,746.3 	"/>
	<polygon class="st174" points="1169.3,700.1 1157.4,741.4 1141.4,704.8 	"/>
	<polygon class="st98" points="1169.3,700.1 1141.4,704.8 1143.8,688.3 	"/>
	<polygon class="st98" points="1141.4,704.8 1157.4,741.4 1138.6,724.1 	"/>
	<polygon class="st174" points="1157.4,741.4 1151.2,746.3 1138.6,724.1 	"/>
	<polygon class="st178" points="1145.6,625.8 1153.9,654.1 1122.5,657.9 	"/>
	<polygon class="st179" points="1153.9,654.1 1132.8,673.4 1122.5,657.9 	"/>
	<polygon class="st180" points="1132.8,673.4 1143.8,688.3 1141.4,704.8 	"/>
	<polygon class="st181" points="1132.8,673.4 1141.4,704.8 1131.6,697.3 	"/>
	<polygon class="st174" points="1141.4,704.8 1138.6,724.1 1131.6,697.3 	"/>
	<polygon class="st182" points="1122.5,657.9 1132.8,673.4 1120.4,679 	"/>
	<polygon class="st183" points="1132.8,673.4 1131.6,697.3 1120.4,679 	"/>
</g>
</svg>
